<svg width="433" height="125" viewBox="0 0 433 125" fill="none" xmlns="http://www.w3.org/2000/svg">
<path d="M212.647 109.581H194.877V104.25H211.459L212.647 109.581Z" fill="#3F4D56"/>
<path d="M213.283 101.881L215.609 111.951H192.508V101.881H213.283Z" fill="#3F4D56"/>
<path d="M173.876 4.44735C176.511 3.49782 179.415 4.87055 180.362 7.51322C181.308 10.1559 179.94 13.0679 177.305 14.0174C154.54 22.2212 137.436 33.7096 126.041 43.1291C120.345 47.837 116.086 52.0194 113.27 55.0004C111.862 56.4905 110.816 57.6789 110.133 58.4807C109.792 58.8815 109.542 59.1856 109.382 59.3823C109.302 59.4805 109.245 59.5521 109.211 59.5954C109.194 59.6169 109.182 59.6314 109.176 59.6388C109.176 59.6399 109.175 59.6408 109.174 59.6416C107.455 61.8562 104.272 62.255 102.062 60.5319C99.8519 58.8082 99.4533 55.6137 101.172 53.3969L105.047 56.4186C101.173 53.3979 101.173 53.3955 101.174 53.3939C101.175 53.3932 101.176 53.3915 101.177 53.3902C101.18 53.3874 101.182 53.3841 101.185 53.3804C101.191 53.3731 101.198 53.3639 101.206 53.353C101.224 53.3309 101.247 53.3017 101.276 53.2653C101.333 53.1924 101.414 53.091 101.519 52.9625C101.727 52.7055 102.029 52.34 102.424 51.8766C103.213 50.9497 104.375 49.6308 105.909 48.0066C108.977 44.7591 113.539 40.2851 119.592 35.2817C131.694 25.2786 149.799 13.124 173.876 4.44735ZM109.174 59.6416C109.174 59.6419 109.173 59.6429 109.173 59.6433C109.172 59.6442 109.172 59.6446 109.172 59.6446L109.174 59.6416Z" fill="#98A4FF"/>
<path d="M181.068 2.56033C187.892 1.00273 197.565 -0.413657 209.07 0.11145C220.368 0.627115 228.659 2.12729 234.21 3.54047C236.984 4.24679 239.07 4.93044 240.501 5.45653C241.217 5.71952 241.768 5.94319 242.16 6.1102C242.356 6.1937 242.512 6.26293 242.628 6.31606C242.687 6.34262 242.735 6.36519 242.773 6.38336C242.793 6.39243 242.81 6.40031 242.824 6.40719C242.831 6.41063 242.838 6.41389 242.844 6.41677C242.847 6.41821 242.849 6.41965 242.852 6.42095C242.853 6.4216 242.855 6.42234 242.856 6.42267C242.857 6.42317 242.855 6.42936 242.577 6.98422L238.634 14.8273C238.352 15.3878 238.353 15.3882 238.354 15.3886C238.355 15.3889 238.356 15.3898 238.357 15.3903C238.359 15.3913 238.361 15.3922 238.363 15.393C238.367 15.3947 238.37 15.3961 238.372 15.3972C238.377 15.3994 238.379 15.4007 238.379 15.4007C238.379 15.4006 238.369 15.396 238.35 15.3871C238.311 15.3695 238.234 15.3349 238.117 15.2852C237.884 15.1858 237.494 15.0262 236.943 14.8236C235.84 14.4185 234.092 13.8399 231.662 13.2213C226.804 11.9845 219.21 10.5848 208.599 10.1005C198.195 9.62567 189.466 10.909 183.366 12.3013C180.319 12.9968 177.938 13.7172 176.345 14.2527C175.548 14.5204 174.95 14.7414 174.565 14.8895C174.372 14.9635 174.233 15.0192 174.15 15.0533C174.108 15.0704 174.08 15.0821 174.066 15.0879C174.065 15.0882 174.064 15.0882 174.064 15.0884C174.063 15.0827 173.996 14.9299 172.032 10.5058C170.019 5.974 169.998 5.92393 169.999 5.92277C170 5.92254 170.001 5.92202 170.003 5.92154C170.005 5.92058 170.007 5.91926 170.01 5.9181C170.016 5.91577 170.022 5.91309 170.029 5.91C170.044 5.90381 170.062 5.89606 170.084 5.88691C170.128 5.86859 170.186 5.84449 170.259 5.81493C170.404 5.75581 170.606 5.67516 170.863 5.57616C171.378 5.37815 172.115 5.1068 173.057 4.79008C174.941 4.15689 177.653 3.33977 181.068 2.56033ZM174.064 15.0887C174.064 15.0888 174.062 15.0894 174.062 15.0897C174.06 15.0902 174.059 15.0907 174.058 15.0911C174.057 15.0918 174.056 15.092 174.055 15.0921C174.056 15.092 174.058 15.0906 174.064 15.0884L174.064 15.0887Z" fill="#FFD200"/>
<path d="M368.135 123.797C384.982 123.797 398.64 110.272 398.64 93.5879C398.64 76.9039 384.982 63.3789 368.135 63.3789C351.287 63.3789 337.629 76.9039 337.629 93.5879C337.629 110.272 351.287 123.797 368.135 123.797Z" fill="#3F4D56"/>
<path d="M165.557 123.797C182.404 123.797 196.062 110.272 196.062 93.5879C196.062 76.9039 182.404 63.3789 165.557 63.3789C148.709 63.3789 135.052 76.9039 135.052 93.5879C135.052 110.272 148.709 123.797 165.557 123.797Z" fill="#3F4D56"/>
<path d="M98.3267 113.729H82.3337V124.983H98.3267V113.729Z" fill="#1B2123"/>
<path d="M82.038 124.981C100.194 124.981 114.913 110.13 114.913 91.8103C114.913 73.4906 100.194 58.6396 82.038 58.6396C63.882 58.6396 49.1636 73.4906 49.1636 91.8103C49.1636 110.13 63.882 124.981 82.038 124.981Z" fill="#1B2123"/>
<path d="M98.031 124.981C116.187 124.981 130.905 110.13 130.905 91.8103C130.905 73.4906 116.187 58.6396 98.031 58.6396C79.8749 58.6396 65.1565 73.4906 65.1565 91.8103C65.1565 110.13 79.8749 124.981 98.031 124.981Z" fill="#1B2123"/>
<path d="M20.1393 90.0342H11.8467V106.619H20.1393V90.0342Z" fill="#2E3A3F"/>
<path d="M20.1491 101.881H55.6792V115.505H10.0696V112.048C10.0696 106.456 14.6053 101.881 20.1491 101.881Z" fill="#FFBC00"/>
<path d="M22.0468 88.7815C24.3111 86.5119 27.9929 86.5012 30.2705 88.7575C32.548 91.0139 32.5588 94.6828 30.2945 96.9524L12.9003 114.387C10.6361 116.657 6.95422 116.668 4.67666 114.411C2.39912 112.155 2.38833 108.486 4.6526 106.216L22.0468 88.7815Z" fill="#4A5A66"/>
<path d="M61.803 94.1807C64.6364 94.1807 66.9335 96.4974 66.9335 99.3551V111.515C66.9335 114.373 64.6364 116.689 61.803 116.689H52.5169C50.8586 116.689 49.3025 115.881 48.3398 114.519C47.377 113.157 47.1261 111.41 47.6665 109.829L51.8223 97.6689L51.8565 97.5717C52.5964 95.5383 54.5176 94.1807 56.6725 94.1807H61.803Z" fill="#4A5A66"/>
<path d="M51.7549 94.1807C54.5765 94.1807 56.8639 96.4349 56.8639 99.2155C56.8639 101.996 54.5765 104.25 51.7549 104.25H21.1019C18.2803 104.25 15.9929 101.996 15.9929 99.2155C15.9929 96.4349 18.2803 94.1807 21.1019 94.1807H51.7549Z" fill="#4A5A66"/>
<path d="M152.16 49.4951C152.109 47.4681 150.791 45.6944 148.917 45.0356C146.535 44.1741 90.1872 24.3091 40.7309 49.2418L2.3212 73.2116C0.446321 74.3771 -0.415111 76.7082 0.192958 78.8366C0.801028 80.9143 2.72658 82.3333 4.9055 82.3333H5.05751L41.7444 81.2691C41.9977 81.2691 42.3018 81.2691 42.5551 81.1677L70.0703 75.8467C70.0703 75.8467 78.3806 74.3264 102.095 74.3264H147.903C149.221 74.3264 150.538 73.769 151.45 72.8062C152.362 71.8433 152.869 70.5257 152.818 69.2081L152.109 49.4445L152.16 49.4951Z" fill="#FFE000"/>
<path d="M226.111 29.0244C226.111 29.0244 221.58 44.7097 209.094 46.7944L229.233 43.4687L226.111 29.0244Z" fill="#4A5A66"/>
<path d="M226.194 26.0642C227.565 26.11 228.729 27.0744 229.015 28.4021L232.129 42.8563C232.298 43.645 232.135 44.468 231.677 45.1347C231.218 45.8013 230.504 46.2536 229.7 46.3868L209.63 49.7121C209.626 49.7127 209.622 49.7134 209.619 49.714L209.618 49.7138L209.614 49.7147C207.987 49.9842 206.448 48.8994 206.174 47.291C205.904 45.7076 206.961 44.2062 208.545 43.8998L208.626 43.8852L208.631 43.8842C213.635 43.0419 217.262 39.4249 219.754 35.5423C220.977 33.6371 221.854 31.7773 222.424 30.39C222.708 29.6996 222.913 29.1347 223.044 28.751C223.109 28.5595 223.156 28.4137 223.185 28.3208C223.2 28.2744 223.21 28.2412 223.215 28.2222C223.218 28.2128 223.22 28.2067 223.221 28.2044C223.221 28.2041 223.221 28.2038 223.221 28.2037C223.598 26.9007 224.824 26.0185 226.194 26.0642ZM224.799 38.7109C224.205 39.6357 223.527 40.5938 222.759 41.5434L225.633 41.0673L225.043 38.3251C224.963 38.4533 224.882 38.582 224.799 38.7109Z" fill="#4A5A66"/>
<path d="M146.306 54.6703L150.357 69.2393V98.3264L235.44 94.7096L247.595 69.2393L239.492 54.6703C239.492 54.6703 235.44 47.3857 227.337 47.3857L146.306 54.6703Z" fill="#4A5A66"/>
<path d="M227.709 45.0146C232.582 45.0147 236.204 47.1969 238.54 49.2777C239.708 50.3189 240.582 51.357 241.167 52.1396C241.462 52.5325 241.686 52.8658 241.843 53.1095C241.921 53.2314 241.982 53.3314 242.027 53.4057C242.049 53.4428 242.067 53.4735 242.081 53.4974C242.088 53.5094 242.094 53.5196 242.098 53.528C242.101 53.5323 242.103 53.5361 242.105 53.5395C242.106 53.5411 242.107 53.5427 242.107 53.5442C242.108 53.5449 242.108 53.5458 242.109 53.5462C242.109 53.5471 242.11 53.5482 240.042 54.7013L242.11 53.5482L250.233 68.0249C250.636 68.7436 250.664 69.6131 250.306 70.3556L238.121 95.6644C237.715 96.5072 236.877 97.0581 235.94 97.0976L150.644 100.692C149.953 100.721 149.279 100.467 148.78 99.9899C148.28 99.5126 147.998 98.8527 147.998 98.163V69.6078L144.03 55.4656C143.827 54.7413 143.957 53.9643 144.386 53.3455C144.815 52.7266 145.498 52.3299 146.249 52.2629L227.483 45.0248L227.596 45.0171C227.634 45.0155 227.671 45.0146 227.709 45.0146ZM237.68 56.0226C237.681 56.0236 237.682 56.0248 237.682 56.0256C237.683 56.0272 237.684 56.0283 237.684 56.0291L237.684 56.0288C237.682 56.0254 237.676 56.0154 237.667 55.9995C237.648 55.9677 237.614 55.9121 237.565 55.8361C237.467 55.6839 237.311 55.4517 237.098 55.1661C236.668 54.5916 236.019 53.8201 235.156 53.0518C233.448 51.5298 231.013 50.1071 227.813 50.077L149.742 57.0335L152.981 68.5787C153.044 68.8006 153.075 69.0299 153.075 69.2603V95.5227L234.203 92.1044L245.159 69.3494L237.68 56.0226Z" fill="#4A5A66"/>
<path d="M178.884 113.135H165.261V123.797H178.884V113.135Z" fill="#3F4D56"/>
<path d="M216.794 55.085H207.909V103.064H216.794V55.085Z" fill="#FFD200"/>
<path d="M313.344 113.729H297.351V124.983H313.344V113.729Z" fill="#1B2123"/>
<path d="M297.055 124.981C315.211 124.981 329.93 110.13 329.93 91.8103C329.93 73.4906 315.211 58.6396 297.055 58.6396C278.899 58.6396 264.181 73.4906 264.181 91.8103C264.181 110.13 278.899 124.981 297.055 124.981Z" fill="#1B2123"/>
<path d="M313.048 124.981C331.204 124.981 345.922 110.13 345.922 91.8103C345.922 73.4906 331.204 58.6396 313.048 58.6396C294.892 58.6396 280.173 73.4906 280.173 91.8103C280.173 110.13 294.892 124.981 313.048 124.981Z" fill="#1B2123"/>
<path d="M417.58 36.1318C418.896 36.1319 419.964 37.1926 419.964 38.5012C419.964 39.8097 418.896 40.8704 417.58 40.8705H239.317C238.001 40.8705 236.933 39.8097 236.933 38.5012C236.933 37.1926 238.001 36.1318 239.317 36.1318H417.58Z" fill="#FFE000"/>
<path d="M241.671 46.2012H223.901V15.9922L241.671 23.5444V46.2012Z" fill="#4A5A66"/>
<path d="M224.033 14.7922C224.481 13.4456 225.941 12.7153 227.295 13.1611L242.27 18.0924C243.623 18.5382 244.357 19.9914 243.909 21.338C243.461 22.6846 242.001 23.4148 240.647 22.9691L225.672 18.0376C224.319 17.5918 223.585 16.1389 224.033 14.7922Z" fill="#4A5A66"/>
<path d="M241.671 46.2018V20.7314L314.918 37.2871L315.121 37.3381L241.671 46.2018Z" fill="#FFD200"/>
<path d="M240.256 18.9131C240.859 18.4354 241.648 18.2549 242.401 18.4226L315.895 34.7857C315.915 34.7901 315.935 34.7949 315.954 34.7998L316.158 34.85C317.347 35.1445 318.154 36.2383 318.077 37.4503C318 38.6622 317.061 39.6469 315.844 39.7916L242.146 48.5524C241.425 48.6381 240.701 48.4137 240.157 47.9359C239.613 47.4582 239.302 46.7726 239.302 46.0527V20.8787C239.302 20.1141 239.653 19.3909 240.256 18.9131ZM244.385 43.2152L300.577 36.5355L244.385 24.0247V43.2152Z" fill="#FFD200"/>
<path d="M279.581 40.8711H223.901V69.3031H279.581V40.8711Z" fill="#4A5A66"/>
<path d="M284.39 35.54C285.987 35.5401 287.281 36.8661 287.281 38.5017C287.281 40.1373 285.987 41.4633 284.39 41.4634H239.233C237.636 41.4634 236.341 40.1373 236.341 38.5017C236.341 36.8661 237.636 35.54 239.233 35.54H284.39Z" fill="#4A5A66"/>
<path d="M297.351 46.2011H279.581V17.1768L297.351 23.2065V46.2011Z" fill="#4A5A66"/>
<path d="M148.083 104.25H117.282V109.581H148.083V104.25Z" fill="#4A5A66"/>
<path d="M426.438 52.7175H414.333L410.486 37.9092H426.438C427.772 37.9092 428.849 38.9951 428.849 40.3772V50.2494C428.849 51.6316 427.772 52.7175 426.438 52.7175Z" fill="#D22321"/>
<path d="M297.647 104.249C299.119 104.249 300.312 103.189 300.312 101.88C300.312 100.572 299.119 99.5107 297.647 99.5107C296.175 99.5107 294.981 100.572 294.981 101.88C294.981 103.189 296.175 104.249 297.647 104.249Z" fill="#E5B900"/>
<path d="M302.682 104.249C303.991 104.249 305.051 103.189 305.051 101.88C305.051 100.572 303.991 99.5107 302.682 99.5107C301.374 99.5107 300.313 100.572 300.313 101.88C300.313 103.189 301.374 104.249 302.682 104.249Z" fill="#E5B900"/>
<path d="M302.682 99.5117C303.991 99.5117 305.051 98.3183 305.051 96.8462C305.051 95.374 303.991 94.1807 302.682 94.1807C301.374 94.1807 300.313 95.374 300.313 96.8462C300.313 98.3183 301.374 99.5117 302.682 99.5117Z" fill="#E5B900"/>
<path d="M307.717 104.249C309.189 104.249 310.382 103.189 310.382 101.88C310.382 100.572 309.189 99.5107 307.717 99.5107C306.244 99.5107 305.051 100.572 305.051 101.88C305.051 103.189 306.244 104.249 307.717 104.249Z" fill="#E5B900"/>
<path d="M307.717 99.5117C309.189 99.5117 310.382 98.3183 310.382 96.8462C310.382 95.374 309.189 94.1807 307.717 94.1807C306.244 94.1807 305.051 95.374 305.051 96.8462C305.051 98.3183 306.244 99.5117 307.717 99.5117Z" fill="#E5B900"/>
<path d="M312.752 104.249C314.06 104.249 315.121 103.189 315.121 101.88C315.121 100.572 314.06 99.5107 312.752 99.5107C311.443 99.5107 310.382 100.572 310.382 101.88C310.382 103.189 311.443 104.249 312.752 104.249Z" fill="#E5B900"/>
<path d="M312.752 99.5117C314.06 99.5117 315.121 98.3183 315.121 96.8462C315.121 95.374 314.06 94.1807 312.752 94.1807C311.443 94.1807 310.382 95.374 310.382 96.8462C310.382 98.3183 311.443 99.5117 312.752 99.5117Z" fill="#E5B900"/>
<path d="M317.786 104.249C319.258 104.249 320.452 103.189 320.452 101.88C320.452 100.572 319.258 99.5107 317.786 99.5107C316.314 99.5107 315.121 100.572 315.121 101.88C315.121 103.189 316.314 104.249 317.786 104.249Z" fill="#E5B900"/>
<path d="M317.786 99.5117C319.258 99.5117 320.452 98.3183 320.452 96.8462C320.452 95.374 319.258 94.1807 317.786 94.1807C316.314 94.1807 315.121 95.374 315.121 96.8462C315.121 98.3183 316.314 99.5117 317.786 99.5117Z" fill="#E5B900"/>
<path d="M297.647 99.5117C299.119 99.5117 300.312 98.3183 300.312 96.8462C300.312 95.374 299.119 94.1807 297.647 94.1807C296.175 94.1807 294.981 95.374 294.981 96.8462C294.981 98.3183 296.175 99.5117 297.647 99.5117Z" fill="#E5B900"/>
<path d="M152.822 74.041H56.8638V113.727H152.822V74.041Z" fill="#FFD200"/>
<path d="M207.909 57.6322L211.96 72.2012V101.288L297.043 97.6715L309.198 72.2012L301.094 57.6322C301.094 57.6322 297.043 50.3477 288.94 50.3477L207.909 57.6322Z" fill="#FFD200"/>
<path d="M289.341 47.9785C294.202 47.9785 297.817 50.1572 300.148 52.2364C301.315 53.2768 302.187 54.3141 302.772 55.096C303.065 55.4886 303.289 55.8215 303.445 56.0647C303.523 56.1864 303.584 56.286 303.628 56.3599C303.651 56.3969 303.669 56.4276 303.682 56.4514C303.689 56.4632 303.695 56.4734 303.7 56.4818C303.702 56.4859 303.704 56.4897 303.706 56.493C303.707 56.4946 303.708 56.4963 303.709 56.4977C303.709 56.4984 303.71 56.4994 303.71 56.4997C303.71 56.5006 303.711 56.5016 301.743 57.6002L303.711 56.5015L311.842 71.0046C312.238 71.7103 312.265 72.564 311.914 73.293L299.717 98.6478C299.319 99.4753 298.496 100.016 297.577 100.055L212.2 103.656C211.522 103.684 210.862 103.435 210.372 102.967C209.882 102.498 209.605 101.85 209.605 101.173V72.5592L205.631 58.384C205.432 57.6729 205.56 56.9102 205.981 56.3026C206.401 55.6951 207.071 55.3055 207.808 55.2398L289.119 47.9882L289.23 47.981C289.267 47.9794 289.304 47.9785 289.341 47.9785ZM211.234 59.9234L214.493 71.5485C214.554 71.7663 214.585 71.9915 214.585 72.2177V98.5808L295.874 95.1528L306.865 72.3054L299.365 58.9296H299.366C299.366 58.9299 299.366 58.9306 299.366 58.9311C299.367 58.9321 299.367 58.9331 299.368 58.9338C299.369 58.9354 299.369 58.9366 299.37 58.9373C299.37 58.9371 299.37 58.9369 299.369 58.9366C299.367 58.9329 299.361 58.9227 299.352 58.9067C299.333 58.8744 299.298 58.8181 299.249 58.7415C299.151 58.5881 298.994 58.3545 298.779 58.0673C298.348 57.4896 297.695 56.714 296.829 55.9416C295.113 54.4113 292.664 52.9787 289.444 52.9487L211.234 59.9234Z" fill="#FFD200"/>
<path d="M261.811 51.2361L263.333 60.3545V89.4416L348.556 85.8248L360.73 60.3545L352.614 45.7855C352.614 45.7855 348.556 38.501 340.439 38.501L261.811 51.2361Z" fill="#FFD200"/>
<path d="M340.374 36.1318C345.215 36.1318 348.815 38.3106 351.137 40.3897C352.299 41.4301 353.168 42.4674 353.75 43.2494C354.042 43.642 354.266 43.9749 354.421 44.218C354.499 44.3397 354.56 44.4393 354.604 44.5133C354.626 44.5503 354.644 44.581 354.657 44.6047C354.664 44.6165 354.67 44.6267 354.675 44.6351C354.677 44.6393 354.679 44.643 354.681 44.6463C354.682 44.648 354.683 44.6496 354.684 44.651C354.684 44.6518 354.685 44.6527 354.685 44.653C354.685 44.6541 354.662 44.6685 352.726 45.7535L354.686 44.6548L362.784 59.1579C363.178 59.8636 363.205 60.7173 362.856 61.4463L350.708 86.8014C350.312 87.6287 349.492 88.1698 348.577 88.2085L263.545 91.8089C262.87 91.8375 262.212 91.5886 261.724 91.12C261.236 90.6514 260.96 90.0036 260.96 89.3264V60.578L259.476 51.7048C259.367 51.0523 259.522 50.383 259.907 49.8454C260.292 49.3079 260.875 48.9462 261.527 48.8409L339.979 36.1635C340.11 36.1424 340.242 36.1318 340.374 36.1318ZM350.344 47.06C350.325 47.0277 350.291 46.9714 350.242 46.8948C350.144 46.7414 349.988 46.5078 349.774 46.2206C349.344 45.6429 348.695 44.8674 347.832 44.095C346.138 42.5781 343.726 41.1571 340.561 41.103L264.78 53.3489L265.886 59.9604C265.909 60.0961 265.92 60.2334 265.92 60.371V86.7341L346.881 83.3061L357.827 60.4587L350.362 47.0904L350.362 47.0899C350.361 47.0887 350.36 47.0869 350.359 47.0844L350.358 47.0829C350.355 47.0777 350.35 47.07 350.344 47.06ZM350.359 47.0844L350.362 47.0904C350.362 47.0897 350.361 47.0886 350.36 47.0872C350.36 47.0864 350.359 47.0854 350.359 47.0844Z" fill="#FFD200"/>
<path d="M370.937 35.5565C372.331 35.3974 373.588 36.4117 373.746 37.822C373.903 39.2322 372.9 40.5046 371.506 40.6637L208.956 59.2169C207.563 59.376 206.305 58.3619 206.148 56.9517C205.991 55.5414 206.993 54.2691 208.387 54.11L370.937 35.5565Z" fill="#FFD200"/>
<path d="M297.943 104.843H211.533L211.462 98.9536L297.943 97.1426V104.843Z" fill="#FFBC00"/>
<path d="M216.497 104.249C217.969 104.249 219.163 103.189 219.163 101.88C219.163 100.572 217.969 99.5107 216.497 99.5107C215.025 99.5107 213.832 100.572 213.832 101.88C213.832 103.189 215.025 104.249 216.497 104.249Z" fill="#FFBC00"/>
<path d="M145.417 104.249C146.89 104.249 148.083 103.189 148.083 101.88C148.083 100.572 146.89 99.5107 145.417 99.5107C143.945 99.5107 142.752 100.572 142.752 101.88C142.752 103.189 143.945 104.249 145.417 104.249Z" fill="#4A5A66"/>
<path d="M155.783 68.1182V72.8568H89.4421V68.1182H155.783Z" fill="#FFD200"/>
<path d="M210.87 52.7168V57.4555H110.174V52.7168H210.87Z" fill="#FFD200"/>
<path d="M279.642 16.7904C279.949 15.4271 281.327 14.5657 282.72 14.8666L297.694 18.1025C299.087 18.4033 299.966 19.7525 299.659 21.1158C299.352 22.479 297.974 23.3402 296.582 23.0394L281.607 19.8037C280.215 19.5029 279.335 18.1537 279.642 16.7904Z" fill="#4A5A66"/>
<path d="M349.476 69.3027H294.981V109.581H349.476V69.3027Z" fill="#FFD200"/>
<path d="M301.094 30.2222C301.985 30.127 302.853 30.5518 303.342 31.3222L308.219 39.0074C308.64 39.6709 308.722 40.5024 308.44 41.2394C308.158 41.9764 307.546 42.5281 306.798 42.7206L284.327 48.4973C283.049 48.8258 281.753 48.0303 281.431 46.7196C281.109 45.409 281.882 44.0784 283.159 43.7461C289.616 42.066 293.624 38.964 296.005 36.3597C297.203 35.0499 298 33.8534 298.488 33.0064C298.733 32.5832 298.899 32.2486 299 32.0325C299.05 31.9246 299.084 31.8464 299.102 31.8019C299.112 31.7797 299.117 31.766 299.119 31.7611L299.118 31.7654C299.443 30.9126 300.206 30.3171 301.094 30.2222ZM301.438 37.3022C300.952 37.9852 300.37 38.7274 299.68 39.4987L302.39 38.8024L301.438 37.3022Z" fill="#FFE000"/>
<path d="M218.47 45.0146C218.47 45.0146 224.143 53.6893 236.933 53.479L216.201 53.8996L218.419 45.0146H218.47Z" fill="#FFD200"/>
<path d="M218.574 43.2393L218.693 43.243C219.285 43.28 219.828 43.5911 220.161 44.0883C220.165 44.0953 220.175 44.1097 220.191 44.1312C220.222 44.1742 220.274 44.2456 220.348 44.3408C220.495 44.5314 220.729 44.8175 221.05 45.1671C221.694 45.8674 222.686 46.8159 224.043 47.7627C226.744 49.6463 230.915 51.5418 236.77 51.4473C237.823 51.4303 238.69 52.27 238.709 53.3242C238.728 54.3784 237.891 55.2491 236.839 55.2701L216.371 55.6779C215.775 55.6897 215.208 55.4222 214.838 54.9548C214.467 54.4873 214.336 53.8735 214.483 53.2952L216.672 44.6797C216.888 43.8324 217.649 43.2393 218.523 43.2393H218.574ZM218.802 51.8052L223.12 51.719C222.676 51.4495 222.256 51.1754 221.861 50.9C220.943 50.2597 220.161 49.6158 219.509 49.0197L218.802 51.8052ZM220.159 44.0856C220.159 44.0862 220.16 44.087 220.16 44.0878C220.158 44.0848 220.157 44.0834 220.157 44.0836C220.157 44.0838 220.158 44.0844 220.159 44.0856Z" fill="#FFD200"/>
<path d="M426.807 70.2257C427.028 68.8595 428.32 67.9304 429.693 68.1504C431.065 68.3705 431.999 69.6563 431.778 71.0225L426.743 102.143C426.522 103.509 425.23 104.438 423.858 104.218C422.485 103.998 421.552 102.712 421.773 101.346L426.807 70.2257Z" fill="#FFD200"/>
<path d="M423.69 99.6381C425.035 99.208 426.489 99.9025 426.938 101.189C427.388 102.476 426.662 103.867 425.318 104.297L407.351 110.045C406.007 110.475 404.553 109.781 404.104 108.494C403.654 107.208 404.38 105.816 405.724 105.386L423.69 99.6381Z" fill="#FFD200"/>
<path d="M420.471 37.161C421.61 36.3696 423.155 36.6818 423.922 37.8584L421.894 39.2667C423.861 37.9006 423.92 37.8599 423.922 37.8591C423.923 37.8593 423.923 37.8598 423.923 37.8602C423.924 37.8609 423.924 37.8618 423.925 37.8627C423.926 37.8645 423.927 37.8667 423.929 37.8692C423.932 37.8743 423.936 37.8806 423.941 37.8884C423.951 37.904 423.965 37.925 423.982 37.9515C424.015 38.0044 424.062 38.079 424.12 38.1743C424.237 38.3648 424.402 38.6388 424.604 38.9895C425.006 39.6904 425.558 40.7009 426.172 41.9689C427.397 44.499 428.888 48.0876 429.937 52.3135C430.98 56.5143 431.444 60.5669 431.65 63.5533C431.753 65.0514 431.792 66.2935 431.805 67.167C431.812 67.604 431.812 67.9495 431.81 68.1896C431.809 68.3097 431.808 68.4036 431.807 68.4694C431.806 68.5023 431.806 68.5282 431.805 68.5469C431.805 68.5562 431.805 68.5636 431.805 68.5693C431.805 68.5722 431.805 68.5747 431.805 68.5766V68.5802L429.319 68.511L431.805 68.5809C431.767 69.9985 430.624 71.1165 429.251 71.078C427.878 71.0394 426.796 69.8589 426.833 68.4414C426.833 68.4396 426.833 68.4363 426.833 68.4316C426.833 68.4212 426.834 68.4036 426.834 68.3793C426.835 68.3306 426.836 68.2544 426.837 68.1525C426.838 67.9486 426.838 67.6418 426.832 67.246C426.82 66.4538 426.785 65.3078 426.689 63.9174C426.497 61.1266 426.066 57.3991 425.119 53.5889C424.18 49.8039 422.836 46.5626 421.723 44.2656C421.169 43.1202 420.676 42.2176 420.326 41.6091C420.151 41.3051 420.013 41.075 419.921 40.9254C419.875 40.8506 419.841 40.7959 419.819 40.7621C419.809 40.7453 419.801 40.7336 419.797 40.7273C419.796 40.7259 419.795 40.7247 419.795 40.7238C419.029 39.5473 419.332 37.9524 420.471 37.161Z" fill="#FFD200"/>
<path d="M345.922 104.249H294.981V98.918H328.959L345.922 104.249Z" fill="#FFBC00"/>
<path d="M329.096 97.1426L357.177 106.62H293.205V97.1426H329.096ZM296.993 102.819H334.032L328.476 100.944H296.993V102.819Z" fill="#FFBC00"/>
<path d="M348.292 63.9707C348.292 63.9707 341.73 67.8043 336.077 84.7024H328.152V68.2583L348.292 63.9707Z" fill="#FFD200"/>
<path d="M264.772 38.5003C264.772 38.5003 279.581 35.9829 279.581 28.4307V38.5003H264.772Z" fill="#4A5A66"/>
<path d="M254.111 38.5003C254.111 38.5003 239.302 35.9829 239.302 28.4307V38.5003H254.111Z" fill="#4A5A66"/>
<path d="M302.416 44.4248L297.351 20.7314L370.597 37.3628L370.8 37.414L302.416 44.4248Z" fill="#FFE000"/>
<path d="M295.733 19.0935C296.349 18.4867 297.234 18.2339 298.08 18.4228L371.574 34.8355L371.634 34.8494L371.837 34.9C373.035 35.1975 373.844 36.3074 373.755 37.531C373.666 38.7546 372.705 39.7379 371.477 39.8618L302.862 46.7803C301.574 46.9101 300.394 46.058 300.121 44.8013L295.039 21.4193C294.856 20.5771 295.117 19.7002 295.733 19.0935ZM304.609 41.5281L355.422 36.4045L300.846 24.2166L304.609 41.5281Z" fill="#FFE000"/>
<path d="M383.535 31.9854C393.876 31.9854 403.545 33.2534 410.615 34.5157C414.155 35.1476 417.054 35.7802 419.075 36.2563C420.085 36.4944 420.876 36.6934 421.418 36.834C421.689 36.9043 421.898 36.9599 422.041 36.9986C422.112 37.0179 422.167 37.033 422.205 37.0435C422.224 37.0487 422.239 37.0527 422.25 37.0556C422.255 37.0571 422.259 37.0583 422.262 37.0592C422.264 37.0596 422.265 37.0601 422.266 37.0604C422.266 37.0605 422.267 37.0606 422.267 37.0607C422.268 37.0608 422.268 37.0609 421.619 39.4315L422.268 37.0609C423.605 37.436 424.389 38.8373 424.018 40.1907C423.648 41.544 422.264 42.3369 420.927 41.9621C420.927 41.962 420.926 41.9622 420.926 41.9621C420.925 41.9617 420.923 41.961 420.919 41.9601C420.912 41.9582 420.901 41.9552 420.886 41.951C420.856 41.9426 420.809 41.9298 420.745 41.9126C420.618 41.8782 420.425 41.8268 420.171 41.7609C419.663 41.629 418.907 41.4387 417.935 41.2097C415.991 40.7514 413.181 40.138 409.743 39.5241C402.857 38.2948 393.494 37.0713 383.535 37.0713C373.576 37.0713 364.214 38.2948 357.328 39.5241C353.89 40.138 351.08 40.7514 349.135 41.2097C348.163 41.4387 347.408 41.629 346.9 41.7609C346.645 41.8269 346.453 41.8782 346.326 41.9126C346.262 41.9298 346.215 41.9426 346.184 41.951C346.169 41.9551 346.158 41.9582 346.151 41.9601C346.148 41.961 346.146 41.9617 346.145 41.9621C346.144 41.9623 346.143 41.9621 346.143 41.9621C344.807 42.3367 343.423 41.5439 343.052 40.1907C342.682 38.8373 343.465 37.436 344.802 37.0609L345.451 39.4315C344.802 37.0609 344.803 37.0608 344.803 37.0607C344.803 37.0606 344.804 37.0605 344.804 37.0604C344.805 37.0601 344.807 37.0596 344.808 37.0592C344.811 37.0583 344.816 37.0571 344.821 37.0556C344.831 37.0527 344.846 37.0487 344.865 37.0435C344.903 37.033 344.958 37.0179 345.03 36.9986C345.173 36.96 345.381 36.9043 345.652 36.834C346.195 36.6934 346.986 36.4944 347.996 36.2563C350.016 35.7802 352.916 35.1476 356.456 34.5157C363.526 33.2534 373.195 31.9854 383.535 31.9854Z" fill="#FFE000"/>
<path d="M428.849 66.3415H366.782L351.253 43.1856L421.211 39.6865L428.849 66.3415Z" fill="#FFE000"/>
<path d="M355.992 109.58H209.094V107.803L346.672 106.026L355.992 109.58Z" fill="#4A5A66"/>
<path d="M346.578 103.068C346.871 103.079 347.161 103.14 347.434 103.251L356.77 107.029C357.898 107.486 358.546 108.683 358.315 109.883C358.084 111.084 357.039 111.951 355.824 111.951H208.669C207.268 111.951 206.132 110.808 206.132 109.398V107.509C206.132 106.112 207.247 104.975 208.634 104.956L346.452 103.066L346.578 103.068Z" fill="#4A5A66"/>
<path d="M206.132 98.1662V56.4308C206.132 55.0339 207.325 53.9014 208.797 53.9014C210.269 53.9014 211.463 55.0339 211.463 56.4308V98.1662C211.463 99.5632 210.269 100.696 208.797 100.696C207.325 100.696 206.132 99.5632 206.132 98.1662Z" fill="#FFD200"/>
<path d="M406.34 89.4414H427.072L421.889 104.546L406.34 109.581V89.4414Z" fill="#FFD200"/>
<path d="M183.966 78.1869C183.253 78.1869 182.488 78.035 181.826 77.731C179.279 76.5659 178.158 73.5265 179.38 70.9936C180.094 69.5246 196.856 34.5712 239.756 7.31771C242.151 5.798 245.259 6.5072 246.787 8.83742C248.316 11.2183 247.602 14.3084 245.259 15.8281C204.804 41.5112 188.755 74.9449 188.602 75.2488C187.736 77.0725 185.902 78.1869 183.966 78.1869Z" fill="#FFE000"/>
<path d="M214.403 45.2815C212.732 44.4633 173.167 25.4403 113.135 49.2702L62.1212 72.282C59.9428 73.2536 58.2204 75.6059 58.0684 77.8559C57.8658 80.1571 59.2336 81.7423 61.3613 81.7423H66.4779C66.4779 81.7423 66.8832 81.7423 67.1364 81.7423L125.547 75.5547H125.648C125.749 75.5547 134.26 74.0718 156.449 74.0718H199.054C200.979 74.0718 203.106 72.6911 204.271 70.6456L215.315 51.5202C216.784 49.0145 216.379 46.3042 214.454 45.3326L214.403 45.2815Z" fill="#FFE000"/>
<path d="M142.956 109.581L142.752 104.574C142.752 104.22 142.752 94.3572 142.752 91.2719V90.4121C142.752 71.5968 158.77 56.2715 178.461 56.2715C198.151 56.2715 214.169 71.5968 214.169 90.4121L214.271 92.587C214.373 94.4584 214.424 96.6839 214.424 96.9873L214.169 102.045L203.967 101.59L204.171 96.6333C204.171 96.1275 204.069 94.4584 204.018 93.0422C203.967 91.7777 203.916 90.665 203.916 90.4627C203.916 77.2111 192.489 66.4378 178.41 66.4378C164.33 66.4378 152.903 77.2111 152.903 90.4627V91.3225C152.903 94.2055 152.903 103.411 152.903 104.22L153.005 109.227L142.956 109.581Z" fill="#FFD200"/>
<path d="M17.3732 92.9964L4.73828 77.5957H58.6406L55.278 92.9964H17.3732H55.278H17.3732Z" fill="#FFD200"/>
<path d="M58.5123 72.8564C59.9875 72.8564 61.3832 73.5252 62.3071 74.6744C63.2309 75.8237 63.5834 77.3297 63.2654 78.7692L59.937 93.8371C59.8292 94.3714 59.6335 94.8739 59.366 95.3292C59.3562 95.346 59.3462 95.3628 59.3361 95.3795C59.3262 95.396 59.3161 95.4124 59.306 95.4288C59.2982 95.4414 59.2902 95.4538 59.2823 95.4664C59.271 95.4843 59.2595 95.5021 59.2479 95.5199C59.2378 95.5356 59.2274 95.5511 59.2171 95.5667C59.208 95.5802 59.1991 95.5938 59.1899 95.6073C59.1767 95.6266 59.1633 95.6458 59.1498 95.665C59.1434 95.6741 59.1371 95.6833 59.1306 95.6924C58.9979 95.8784 58.8527 96.0543 58.6962 96.2189C58.6921 96.2232 58.688 96.2274 58.684 96.2316C58.6207 96.2977 58.5555 96.3619 58.4886 96.4243C58.4572 96.4537 58.4252 96.4826 58.393 96.5111C58.3828 96.5202 58.3726 96.5293 58.3624 96.5383C58.3488 96.5501 58.3352 96.5617 58.3215 96.5734C58.3077 96.5851 58.2938 96.5969 58.2799 96.6085C58.2647 96.6211 58.2494 96.6336 58.2341 96.6461C58.2221 96.6558 58.2102 96.6656 58.1982 96.6752C58.1816 96.6884 58.1649 96.7015 58.1481 96.7145C58.1362 96.7237 58.1242 96.7328 58.1122 96.7419C57.4319 97.2598 56.6111 97.6024 55.7168 97.7031C55.7071 97.7042 55.6973 97.7053 55.6876 97.7063C55.6633 97.7089 55.6389 97.7113 55.6144 97.7135C55.6013 97.7147 55.5882 97.7159 55.575 97.717C55.5498 97.7191 55.5246 97.721 55.4993 97.7227C55.4873 97.7235 55.4752 97.7242 55.4632 97.725C55.4409 97.7263 55.4187 97.7279 55.3964 97.7289C55.376 97.7299 55.3556 97.7305 55.3351 97.7312C55.3147 97.7319 55.2943 97.7325 55.2738 97.7329C55.2734 97.7329 55.273 97.7332 55.2726 97.7332L55.166 97.7344H17.4423C15.9938 97.7344 14.6206 97.0898 13.6959 95.9757L1.12117 80.8259C-0.0832289 79.3748 -0.339919 77.3589 0.462262 75.6525C1.26447 73.9461 2.98116 72.8564 4.86782 72.8564H58.5123ZM19.7292 88.0062H51.2557L52.4531 82.5849H15.2294L19.7292 88.0062Z" fill="#FFD200"/>
<path d="M90.8681 69.3027C93.679 69.3027 95.9578 71.5569 95.9578 74.3376C95.9578 77.1182 93.679 79.3724 90.8681 79.3724H66.6923C63.8813 79.3724 61.6025 77.1182 61.6025 74.3376C61.6025 71.5569 63.8813 69.3027 66.6923 69.3027H90.8681Z" fill="#FFE000"/>
<path d="M58.4304 77.5957L21.3237 92.9964H61.6024L58.4304 77.5957Z" fill="#FFD200"/>
<path d="M56.7288 73.1623C58.0079 72.6783 59.4332 72.7714 60.6425 73.4225C61.8909 74.0947 62.7807 75.2924 63.0722 76.693L66.2385 91.9047C66.5352 93.33 66.1811 94.8148 65.2746 95.946C64.368 97.0772 63.0055 97.7344 61.5665 97.7344H21.3602C19.0759 97.7344 17.1116 96.0964 16.6741 93.8269C16.2366 91.5573 17.4485 89.2919 19.5653 88.4226L56.6056 73.2108L56.7288 73.1623ZM45.8288 88.0682H55.6813L54.9052 84.3406L45.8288 88.0682Z" fill="#FFD200"/>
<path d="M312.751 96.8466L336.95 109.58H354.807V92.4023L312.751 96.8466Z" fill="#FFD200"/>
<path d="M372.209 35.3636C371.906 35.1104 371.552 34.9078 371.148 34.8065L366.852 33.8443L361.242 32.5781C359.474 32.9833 357.705 33.4391 355.885 33.9456C354.218 34.4014 352.55 34.9078 350.882 35.4143C348.203 36.2246 345.424 37.1869 342.594 38.1491C340.825 38.7569 339.157 39.314 337.338 40.023L330.717 42.1501L318.083 46.2018L330.869 44.6824L342.998 43.2137L371.047 39.8204C372.26 39.6685 373.119 38.6556 373.169 37.4401C373.169 36.6298 372.765 35.8701 372.159 35.3636H372.209Z" fill="#FFD200"/>
<path d="M144.209 84.7029C144.412 71.8984 162.299 63.3789 162.299 63.3789C152.492 69.8316 81.1492 75.9817 81.1492 75.9817V83.1906L144.209 84.7029Z" fill="#FFD200"/>
<path d="M161.042 60.6685C162.241 60.0889 163.681 60.5425 164.338 61.7068C164.995 62.8713 164.644 64.349 163.536 65.0892C163.034 65.4242 162.439 65.7425 161.769 66.0465C161.439 66.2327 161.064 66.4507 160.651 66.6995C159.056 67.6621 156.939 69.0676 154.828 70.8451C150.484 74.5021 146.733 79.2525 146.65 84.5638C146.639 85.2432 146.36 85.8903 145.873 86.3611C145.386 86.8319 144.733 87.0876 144.058 87.0712L81.2495 85.5423C79.8761 85.5089 78.78 84.3781 78.78 82.9948V75.7067C78.7801 74.3849 79.7838 73.2827 81.0916 73.1682L81.3107 75.7067C81.0944 73.2004 81.0917 73.1684 81.0921 73.168C81.0926 73.1679 81.0934 73.1681 81.0943 73.168C81.0963 73.1678 81.0996 73.1673 81.1038 73.167C81.1121 73.1662 81.1247 73.1652 81.1416 73.1637C81.1752 73.1608 81.2257 73.1564 81.2925 73.1504C81.4261 73.1386 81.6251 73.1208 81.8853 73.0974C82.4058 73.0504 83.1715 72.9807 84.1499 72.8895C86.1068 72.7073 88.9146 72.4395 92.3149 72.0978C99.117 71.4142 108.283 70.4352 117.75 69.2535C127.224 68.071 136.964 66.6895 144.926 65.2029C148.91 64.4591 152.41 63.6962 155.191 62.9285C157.073 62.4091 158.505 61.9176 159.509 61.481C159.762 61.3397 159.988 61.2156 160.184 61.1107C160.445 60.9712 160.653 60.8639 160.798 60.7899C160.871 60.7529 160.929 60.7243 160.97 60.704C160.99 60.6939 161.007 60.6856 161.019 60.6797C161.025 60.6768 161.03 60.6744 161.034 60.6725C161.036 60.6715 161.037 60.6706 161.039 60.67C161.039 60.6696 161.04 60.6694 161.041 60.6692C161.043 60.6716 161.081 60.7498 162.137 62.9656L161.042 60.6685ZM148.629 69.6755C147.727 69.8567 146.799 70.0367 145.849 70.2141C137.74 71.728 127.884 73.124 118.372 74.3113C108.853 75.4995 99.6441 76.483 92.8174 77.1691C89.4034 77.5122 86.5834 77.7811 84.6161 77.9643C84.3409 77.9899 84.0824 78.0129 83.8413 78.0352V80.5073L141.825 81.9188C142.65 77.025 145.508 72.8889 148.629 69.6755Z" fill="#FFD200"/>
<path d="M200.209 81.1496C199.701 73.2403 190.261 66.9336 178.588 66.9336C166.916 66.9336 157.476 73.2403 156.968 81.1496H200.209Z" fill="#4A5A66"/>
<path d="M203.762 54.2607C203.762 54.2607 213.682 60.4723 213.832 69.0967C213.832 69.148 213.832 69.2507 213.832 69.302V53.9014L203.762 54.2607Z" fill="#FFE000"/>
<path d="M211.517 69.2885V69.1032C211.449 65.7178 209.424 62.5818 207.062 60.1123C205.911 58.9092 204.757 57.9454 203.89 57.2829C203.458 56.953 203.102 56.7016 202.859 56.5358C202.738 56.4531 202.645 56.392 202.586 56.3536C202.556 56.3344 202.535 56.3208 202.523 56.313C202.517 56.3092 202.513 56.3067 202.511 56.3057C202.511 56.3056 202.511 56.3053 202.511 56.3052C201.631 55.7561 201.207 54.6849 201.47 53.6684C201.733 52.6509 202.62 51.9291 203.654 51.8924L213.777 51.5337C214.412 51.5112 215.029 51.7521 215.486 52.2011C215.943 52.6501 216.201 53.2688 216.201 53.9152V69.2885C216.201 70.6045 215.153 71.6715 213.859 71.6715C212.566 71.6715 211.517 70.6046 211.517 69.2885ZM210.073 56.4334C210.188 56.5496 210.304 56.6678 210.419 56.7884C210.781 57.1668 211.149 57.5731 211.517 58.0052V56.3823L210.073 56.4334Z" fill="#FFE000"/>
<path d="M212.956 52.124C212.956 52.124 227.272 62.0449 247.144 62.1937C247.294 62.1937 247.444 62.1937 247.595 62.1937H212.055L212.956 52.124Z" fill="#FFE000"/>
<path d="M215.133 48.7119C215.149 48.7232 215.179 48.7436 215.223 48.7727C215.309 48.831 215.449 48.9237 215.64 49.0459C216.021 49.2904 216.607 49.6526 217.378 50.0941C218.921 50.978 221.202 52.1742 224.083 53.379C229.86 55.7951 237.951 58.2045 247.308 58.2756H247.731L247.835 58.2769C250.002 58.3321 251.741 60.1159 251.741 62.3082C251.741 64.5354 249.946 66.3408 247.731 66.3408H211.919C210.794 66.3408 209.72 65.8655 208.961 65.0309C208.201 64.1963 207.825 63.0791 207.924 61.9521L208.832 51.6549C208.959 50.2211 209.836 48.9638 211.133 48.3558C212.43 47.7482 213.95 47.8815 215.123 48.7052L215.133 48.7119Z" fill="#FFE000"/>
<path d="M217.386 47.3853V34.9463L207.316 47.3332L212.172 47.3853H217.386Z" fill="#4A5A66"/>
<path d="M215.342 33.4964C216.012 32.6735 217.118 32.3662 218.107 32.7281C219.096 33.0901 219.755 34.0436 219.755 35.1118V47.2222C219.755 48.6214 218.639 49.7557 217.262 49.7558H212.15L207.414 49.705C206.453 49.6947 205.583 49.1239 205.179 48.2379C204.774 47.352 204.907 46.3086 205.52 45.5562L215.342 33.4964ZM212.699 44.6886H214.769V42.146L212.699 44.6886Z" fill="#4A5A66"/>
<path d="M429.441 64.5645C429.441 64.5645 427.103 49.9034 422.333 39.6865L429.441 64.5645Z" fill="#FFE000"/>
<path d="M421.018 37.498C422.281 37.0112 423.721 37.5391 424.329 38.7124C427.07 43.9966 429.074 50.3422 430.385 55.2844C431.045 57.772 431.538 59.9378 431.867 61.4841C432.031 62.2578 432.155 62.8779 432.238 63.3071C432.279 63.5216 432.311 63.6886 432.332 63.8033C432.343 63.8607 432.351 63.905 432.356 63.9357C432.359 63.951 432.361 63.9632 432.363 63.9716C432.363 63.9758 432.364 63.9791 432.364 63.9815C432.365 63.9828 432.365 63.984 432.365 63.9848C432.365 63.9851 432.365 63.9856 432.365 63.9858C432.363 63.9865 432.285 63.9996 429.786 64.4109L432.365 63.9865C432.598 65.2982 431.733 66.5581 430.39 66.8654C429.048 67.1726 427.688 66.4215 427.284 65.1491L419.487 40.5784C419.089 39.3241 419.754 37.9849 421.018 37.498Z" fill="#FFE000"/>
<path d="M390.347 63.9707C390.347 63.9707 408.26 69.0648 408.26 89.441H427.938L431.218 68.4025V63.9707H390.347Z" fill="#FFD200"/>
<path d="M367.838 36.7244C367.838 36.7244 331.835 26.914 297.351 20.7314L367.838 36.7244Z" fill="#FFD200"/>
<path d="M368.921 34.1596C370.276 34.5209 371.077 35.8987 370.712 37.2368C370.346 38.575 368.951 39.3669 367.596 39.0056L368.921 34.1596ZM295.021 20.4325C295.267 19.0678 296.586 18.158 297.967 18.4004C315.339 21.4494 333.078 25.3896 346.461 28.5642C353.156 30.1521 358.767 31.55 362.706 32.5512C364.675 33.0518 366.227 33.4533 367.287 33.73C367.818 33.8683 368.225 33.9755 368.5 34.0481C368.638 34.0844 368.743 34.1123 368.813 34.131C368.848 34.1403 368.875 34.1474 368.893 34.1522C368.902 34.1546 368.909 34.1564 368.914 34.1576C368.916 34.1582 368.918 34.1588 368.919 34.1591C368.92 34.1593 368.92 34.1593 368.92 34.1593C368.921 34.1594 368.921 34.1596 368.259 36.5826C367.596 39.0055 367.596 39.0056 367.596 39.0056C367.596 39.0055 367.595 39.0054 367.595 39.0053C367.594 39.0051 367.593 39.0046 367.59 39.0041C367.586 39.003 367.58 39.0012 367.572 38.9989C367.555 38.9944 367.529 38.9877 367.495 38.9787C367.427 38.9605 367.324 38.9333 367.189 38.8975C366.918 38.8261 366.515 38.7201 365.99 38.5831C364.939 38.309 363.398 37.9102 361.439 37.4124C357.523 36.4168 351.938 35.0258 345.275 33.4451C331.942 30.2826 314.312 26.3672 297.078 23.3426C295.697 23.1001 294.776 21.7972 295.021 20.4325Z" fill="#FFE000"/>
<path d="M315.702 64.5138C315.702 64.5138 330.094 58.9525 361.261 58.9525H418.779L413.965 40.3476C413.965 40.3476 382.798 27.3545 322.898 44.0888L236.341 64.5643H315.702" fill="#FFE000"/>
<path d="M322.67 41.7719C352.823 33.3633 375.814 32.4052 391.329 33.5781C399.088 34.1647 404.97 35.2837 408.937 36.2661C410.92 36.7573 412.423 37.2141 413.443 37.5531C413.953 37.7226 414.342 37.8626 414.609 37.9626C414.742 38.0126 414.845 38.0527 414.918 38.0814C414.954 38.0957 414.983 38.1073 415.004 38.1158C415.014 38.1201 415.023 38.1235 415.03 38.1263C415.033 38.1276 415.036 38.129 415.038 38.13C415.039 38.1305 415.041 38.131 415.041 38.1312C415.043 38.1318 415.044 38.1322 414.307 39.8887L415.044 38.1322C415.651 38.385 416.104 38.9066 416.269 39.5415L421.082 58.1185C421.244 58.7459 421.106 59.4128 420.708 59.9251C420.31 60.4373 419.696 60.737 419.046 60.7371H361.546C346.094 60.7371 334.836 62.114 327.474 63.4782C323.793 64.1603 321.085 64.8395 319.312 65.3423C318.426 65.5937 317.773 65.8012 317.349 65.9427C317.261 65.9722 317.183 65.9988 317.115 66.0224C316.792 66.2236 316.411 66.3405 316.002 66.3406H236.666C235.6 66.3406 234.702 65.5445 234.578 64.4889C234.454 63.4332 235.143 62.4523 236.181 62.2071L322.67 41.7719ZM391.011 37.756C375.984 36.62 353.471 37.5284 323.762 45.8181C323.735 45.8256 323.708 45.8327 323.681 45.8391L254.646 62.1505H315.49C315.616 62.1054 315.79 62.0444 316.012 61.9702C316.497 61.8081 317.212 61.5817 318.161 61.3125C320.059 60.7741 322.895 60.0651 326.706 59.3591C334.327 57.9469 345.841 56.5473 361.546 56.5473H416.332L412.472 41.6494C412.362 41.6113 412.242 41.5707 412.112 41.5276C411.194 41.2223 409.796 40.7964 407.922 40.3324C404.176 39.4044 398.526 38.3241 391.011 37.756Z" fill="#FFE000"/>
<path d="M411.874 112.543C408.422 112.543 407.305 111.478 406.949 107.368H406.797V103.968C406.797 102.598 406.797 100.974 406.797 99.1475V90.5723C406.797 77.2782 395.373 66.4704 381.411 66.4704C367.449 66.4704 356.026 77.2782 356.026 90.5723V91.4349C356.026 94.2764 356.026 103.258 356.026 104.069L356.127 109.093L346.125 109.448L345.922 104.425C345.922 104.069 345.922 94.4286 345.922 91.3842V90.5216C345.922 71.646 361.864 56.2715 381.462 56.2715C401.06 56.2715 417.002 71.646 417.002 90.5216C417.002 90.6738 417.002 94.5808 417.002 98.5386V106.505C417.002 106.505 417.002 106.809 417.002 106.911V107.215C416.647 112.137 412.737 112.391 411.925 112.391L411.874 112.543Z" fill="#FFD200"/>
<path d="M424.702 100.695L403.97 107.6V109.58H421.755L424.702 100.695Z" fill="#2E3A3F"/>
<path d="M422.773 96.2166C424.592 95.6117 426.597 96.0829 427.954 97.4344C429.311 98.7859 429.787 100.786 429.184 102.602L426.246 111.447C425.559 113.515 423.621 114.912 421.437 114.912H403.706C400.908 114.912 398.64 112.649 398.64 109.857V107.886C398.64 105.71 400.035 103.779 402.104 103.091L422.773 96.2166Z" fill="#2E3A3F"/>
<path d="M388.57 63.9707C388.57 63.9707 406.483 69.0648 406.483 89.441H426.161L429.441 68.4025V63.9707H388.57Z" fill="#FFD200"/>
<path d="M382.054 113.135H368.431V123.797H382.054V113.135Z" fill="#3F4D56"/>
<path d="M381.166 123.797C398.013 123.797 411.671 110.272 411.671 93.5879C411.671 76.9039 398.013 63.3789 381.166 63.3789C364.318 63.3789 350.661 76.9039 350.661 93.5879C350.661 110.272 364.318 123.797 381.166 123.797Z" fill="#4A5A66"/>
<path d="M381.166 123.797C398.013 123.797 411.671 110.272 411.671 93.5879C411.671 76.9039 398.013 63.3789 381.166 63.3789C364.318 63.3789 350.661 76.9039 350.661 93.5879C350.661 110.272 364.318 123.797 381.166 123.797Z" fill="#4A5A66"/>
<path d="M79.9648 75.8184H53.3098V85.2957H79.9648V75.8184Z" fill="#FFD200"/>
<path d="M80.202 72.8564C81.7067 72.8564 82.9264 74.1229 82.9264 75.6851V85.4284C82.9264 86.9906 81.7066 88.2571 80.202 88.2571H53.6648C52.1602 88.2571 50.9404 86.9906 50.9404 85.4284V75.6851C50.9404 74.1229 52.1602 72.8564 53.6648 72.8564H80.202ZM56.3892 82.5997H77.4777V78.5138H56.3892V82.5997Z" fill="#FFD200"/>
<path d="M92.6013 113.727H57.9932L49.1636 90.2527L114.32 87.0723L92.6013 113.727Z" fill="#4A5A66"/>
<path d="M114.041 84.7062C115.035 84.657 115.966 85.2022 116.416 86.098C116.867 86.9939 116.753 88.0731 116.126 88.8534L94.5108 115.746C94.0314 116.343 93.3107 116.689 92.5494 116.689H58.1065C57.0533 116.689 56.1108 116.03 55.7417 115.035L46.9544 91.3511C46.6719 90.5897 46.7667 89.7382 47.2097 89.0591C47.6526 88.38 48.3904 87.9549 49.1954 87.915L114.041 84.7062ZM52.8954 92.8312L59.858 111.596H91.3455L108.645 90.0726L52.8954 92.8312Z" fill="#4A5A66"/>
<path d="M115.172 103.066L128.536 106.028V111.951H110.174L115.172 103.066Z" fill="#FFBC00"/>
<path d="M113.571 102.243C113.977 101.523 114.82 101.153 115.638 101.333L128.839 104.246C129.701 104.436 130.313 105.186 130.313 106.052V111.876C130.313 112.898 129.467 113.727 128.424 113.727H110.286C109.617 113.727 108.998 113.38 108.658 112.816C108.319 112.251 108.309 111.553 108.633 110.979L113.571 102.243ZM113.492 110.025H126.534V107.532L116.19 105.25L113.492 110.025Z" fill="#FFBC00"/>
<path d="M103.11 98.3266L114.32 87.0723L95.3655 87.9807C95.3655 87.9807 108.664 86.5171 103.11 98.3266Z" fill="#2E3A3F"/>
<path d="M114.058 84.706C115.091 84.6567 116.049 85.2375 116.471 86.1688C116.893 87.1001 116.692 88.1913 115.966 88.9175L104.923 99.9591C104.065 100.816 102.707 100.941 101.704 100.253C100.701 99.5662 100.346 98.2669 100.861 97.1751C102.102 94.5465 102.055 93.1327 101.85 92.464C101.673 91.8869 101.244 91.4374 100.389 91.0779C99.4923 90.701 98.3693 90.5412 97.3645 90.5004C97.1414 90.4913 96.933 90.4886 96.7449 90.4895L95.6275 90.543C94.2734 90.6076 93.1118 89.5998 93.0041 88.2667C92.8965 86.9337 93.8815 85.7572 95.2289 85.6095L95.5061 88.0702C95.2302 85.6207 95.23 85.6095 95.2312 85.6093C95.2316 85.6092 95.2327 85.6091 95.2336 85.609C95.2354 85.6088 95.2374 85.6085 95.2395 85.6083C95.2439 85.6078 95.2491 85.6075 95.2551 85.6068C95.267 85.6056 95.2822 85.604 95.3005 85.6022C95.3369 85.5987 95.3858 85.5945 95.446 85.5896C95.5662 85.5798 95.7324 85.568 95.9368 85.5582C96.128 85.549 96.3545 85.5417 96.6093 85.539L114.058 84.706ZM106.262 90.0353C106.413 90.345 106.546 90.6756 106.654 91.029C106.666 91.0672 106.677 91.1057 106.688 91.1441L107.874 89.9584L106.262 90.0353ZM95.7762 90.5313C95.7764 90.5313 95.7768 90.5314 95.7774 90.5313C95.778 90.5312 95.7789 90.5312 95.7799 90.5311C95.7804 90.531 95.7811 90.5308 95.7814 90.5308C95.7785 90.5311 95.7768 90.5312 95.7762 90.5313Z" fill="#2E3A3F"/>
<path d="M61.6025 111.209L96.3809 110.403L115.573 84.5637L123.797 84.1104L114.659 113.727L61.6025 111.209Z" fill="#FFBC00"/>
<path d="M123.8 80.5619C124.898 80.5005 125.957 80.9831 126.635 81.8547C127.313 82.7262 127.526 83.8766 127.204 84.9353L118.096 114.886C117.646 116.367 116.255 117.351 114.718 117.277L61.8444 114.731C60.0348 114.644 58.6187 113.129 58.6409 111.306C58.6631 109.482 60.1156 108.004 61.9267 107.961L94.9345 107.185L113.081 82.393C113.676 81.5797 114.601 81.0761 115.603 81.0201L123.8 80.5619ZM117.558 87.6956L101.342 109.851L112.427 110.385L119.357 87.595L117.558 87.6956Z" fill="#FFBC00"/>
<path d="M110.174 113.729L80.5569 114.321L109.121 114.913L110.174 113.729Z" fill="#2E3A3F"/>
<path d="M109.959 111.358C110.943 111.336 111.85 111.899 112.284 112.803C112.718 113.706 112.6 114.785 111.982 115.568L110.92 116.912C110.427 117.536 109.679 117.891 108.895 117.872L80.0666 117.2C78.6925 117.168 77.5949 116.02 77.5955 114.614C77.596 113.209 78.6944 112.061 80.0686 112.03L109.959 111.358Z" fill="#2E3A3F"/>
<path d="M215.017 105.281L203.762 105.434V98.918H214.712L215.017 105.281Z" fill="#FFBC00"/>
<path d="M178.588 123.797C195.436 123.797 209.093 110.272 209.093 93.5879C209.093 76.9039 195.436 63.3789 178.588 63.3789C161.741 63.3789 148.083 76.9039 148.083 93.5879C148.083 110.272 161.741 123.797 178.588 123.797Z" fill="#4A5A66"/>
<path d="M150.69 108.396L123.758 110.212L117.282 115.245L153.414 115.504L150.69 108.396Z" fill="#2E3A3F"/>
<path d="M150.475 106.027C151.546 106 152.525 106.636 152.914 107.624L155.612 114.472C155.916 115.244 155.811 116.113 155.332 116.794C154.853 117.475 154.063 117.879 153.22 117.873L117.439 117.623C116.353 117.615 115.391 116.932 115.045 115.921C114.699 114.91 115.044 113.794 115.905 113.144L122.318 108.295L122.394 108.24C122.777 107.971 123.23 107.813 123.701 107.782L150.371 106.032L150.475 106.027ZM125.397 112.68L149.515 112.848L148.842 111.142L125.397 112.68Z" fill="#2E3A3F"/>
<path d="M40.8706 104.346C40.8706 104.346 47.1379 105.49 47.8512 110.173L50.3479 102.941L41.533 102.473L40.8706 104.346Z" fill="#4A5A66"/>
<path d="M18.9543 108.397C18.9543 108.397 22.3186 104.579 29.6163 104.579V101.881H20.1448L18.9543 108.397Z" fill="#4A5A66"/>
<path d="M35.5399 110.766H24.8779V115.504H35.5399V110.766Z" fill="#2E3A3F"/>
<path d="M30.8013 104.25H40.8709V105.026C40.8709 108.18 38.366 110.766 35.3101 110.766H30.8013V104.25Z" fill="#2E3A3F"/>
<path d="M24.8779 110.766C24.8779 110.766 30.8013 110.766 30.8013 104.25V110.766H24.8779Z" fill="#2E3A3F"/>
<path d="M11.8467 106.027V90.0342L17.77 98.3941L11.8467 106.027Z" fill="#2E3A3F"/>
<path d="M10.5873 87.7998C11.6053 87.4493 12.7311 87.7929 13.3873 88.6546L19.6172 96.8355C20.3385 97.7825 20.3093 99.1099 19.5471 100.024L13.3172 107.493C12.637 108.309 11.5255 108.607 10.5347 108.241C9.54389 107.875 8.88477 106.922 8.88477 105.855V90.2049C8.88477 89.1173 9.56928 88.1503 10.5873 87.7998ZM13.9091 98.9028L14.4008 98.3131L13.9091 97.667V98.9028Z" fill="#2E3A3F"/>
<path d="M337.037 67.8242C337.037 67.8242 347.976 67.8242 366.106 59.8252L370.208 65.141L343.722 71.6718L337.088 67.8748L337.037 67.8242Z" fill="#FFD200"/>
<path d="M308.013 63.1009L293.291 49.7624C293.291 49.7624 290.54 46.2021 282.39 46.2021L206.132 52.8714L211.022 65.1568L307.911 63.2513L308.013 63.1009Z" fill="#FFE000"/>
<path d="M282.289 44.4238C286.653 44.4238 289.688 45.3936 291.689 46.4521C292.684 46.9785 293.407 47.5183 293.9 47.9512C294.146 48.1674 294.334 48.3565 294.469 48.503C294.512 48.5497 294.55 48.5924 294.582 48.63L309.151 62.0183C309.868 62.677 309.998 63.7587 309.457 64.568L309.356 64.7201C308.997 65.258 308.396 65.5865 307.749 65.5994L211.244 67.5244C210.415 67.5409 209.664 67.0403 209.362 66.27L204.491 53.8581C204.264 53.2788 204.323 52.6264 204.651 52.0974C204.979 51.5683 205.538 51.2246 206.158 51.1695L282.114 44.4315L282.202 44.4258C282.231 44.4245 282.26 44.4238 282.289 44.4238ZM209.139 54.8719L212.543 63.5463L303.006 61.7415L291.807 51.4503C291.723 51.3726 291.645 51.2877 291.576 51.1966C291.577 51.198 291.578 51.1994 291.579 51.2006C291.58 51.2031 291.582 51.2055 291.584 51.2076C291.587 51.2117 291.59 51.215 291.592 51.2175C291.594 51.2205 291.596 51.2223 291.596 51.223C291.594 51.2205 291.582 51.2057 291.559 51.1807C291.512 51.1305 291.423 51.0385 291.285 50.9176C291.01 50.6762 290.541 50.3167 289.836 49.9439C288.448 49.2094 286.078 48.3877 282.371 48.3758L209.139 54.8719Z" fill="#FFE000"/>
<path d="M225.327 45.241L236.829 36.4581C237.437 35.8997 238.247 35.4936 239.058 35.5443H249.192C250.914 35.5443 252.333 36.9658 252.333 38.6919C252.333 40.4181 250.914 41.8396 249.192 41.8396H239.058L241.287 40.9257L232.522 52.4501C227.658 58.3392 219.45 50.1147 225.378 45.2918L225.327 45.241Z" fill="#FFBC00"/>
<path d="M251.741 40.5747L239.302 37.9092V43.2402L251.741 40.5747Z" fill="#FFBC00"/>
<path d="M235.85 34.3335C237.04 33.3585 238.604 32.968 240.112 33.2697L252.945 35.8362C255.345 36.3161 257.072 38.4232 257.072 40.8702C257.072 43.3173 255.345 45.4241 252.945 45.904L240.112 48.4708C238.604 48.7725 237.04 48.382 235.85 47.407C234.661 46.4319 233.971 44.975 233.971 43.4371V38.3034C233.971 36.7655 234.661 35.3086 235.85 34.3335Z" fill="#FFBC00"/>
<path d="M284.32 46.0312C284.625 46.5758 289.661 53.309 289.661 53.309L317.49 46.8729L313.827 36.7236L284.32 46.0312Z" fill="#FFE000"/>
<path d="M313.055 33.8521C314.32 33.5015 315.648 34.2098 316.088 35.4933L319.717 46.1004C319.954 46.7921 319.894 47.5543 319.551 48.1977C319.209 48.8411 318.617 49.3051 317.922 49.4746L290.347 56.2011C289.358 56.4423 288.325 56.0502 287.726 55.2067L289.764 53.6842L287.726 55.2067V55.2064C287.726 55.2062 287.726 55.2058 287.725 55.2054C287.725 55.2045 287.724 55.203 287.723 55.2013C287.72 55.1979 287.717 55.1928 287.712 55.1861C287.702 55.1726 287.688 55.1528 287.67 55.1268C287.633 55.0749 287.579 54.9989 287.51 54.9019C287.373 54.7078 287.176 54.43 286.94 54.095C286.466 53.4251 285.831 52.5253 285.186 51.6072C284.542 50.6903 283.885 49.7504 283.369 49.0018C283.111 48.6283 282.883 48.2956 282.708 48.0342C282.573 47.8326 282.373 47.5327 282.258 47.3168C281.899 46.641 281.852 45.8361 282.129 45.1209C282.407 44.4057 282.98 43.8544 283.694 43.617L312.932 33.8895L313.055 33.8521ZM288.49 47.4602C288.746 47.8264 289.011 48.2051 289.276 48.5816C289.828 49.3682 290.374 50.142 290.816 50.7681L314.034 45.1047L312.147 39.59L288.49 47.4602Z" fill="#FFE000"/>
<path d="M58.4234 104.793L51.6777 93.2077C51.6777 93.2077 50.1054 90.4847 57.3075 90.0886C64.5097 89.6926 94.1804 88.2568 94.1804 88.2568L62.1259 94.7424C62.1259 94.7424 52.7935 95.9801 58.4234 104.842V104.793Z" fill="#2E3A3F"/>
<path d="M62.5534 97.2232C62.5489 97.2239 62.5391 97.2254 62.5245 97.228C62.4892 97.2342 62.4266 97.246 62.3421 97.2646C62.1713 97.3023 61.921 97.3659 61.6322 97.4642C61.0239 97.6712 60.3959 97.9815 59.9413 98.3977C59.5382 98.7668 59.2901 99.1901 59.2539 99.8145C59.2237 100.335 59.3324 101.17 59.8884 102.396L60.7136 103.887C60.9291 104.277 61.0425 104.717 61.0425 105.165V105.217C61.0425 106.373 60.2963 107.389 59.2143 107.705C58.1323 108.022 56.9769 107.563 56.384 106.581C56.0168 105.972 55.6963 105.377 55.4219 104.793L49.6363 94.3357C49.6348 94.3331 49.6333 94.3305 49.6318 94.3278L51.8257 93.0575L49.9053 94.1677C49.6307 94.3256 49.63 94.3244 49.6294 94.3233C49.6289 94.3225 49.6277 94.3202 49.6269 94.3187C49.6252 94.3156 49.6234 94.3125 49.6217 94.3093C49.6182 94.3029 49.6147 94.2961 49.6111 94.2892C49.6037 94.2753 49.5959 94.2602 49.5878 94.2442C49.5716 94.2123 49.5539 94.1761 49.5353 94.1359C49.4983 94.0558 49.4566 93.9578 49.4148 93.8436C49.3325 93.6182 49.2433 93.3107 49.1963 92.9403C49.0986 92.1689 49.1923 91.1344 49.8545 90.1309C51.0834 88.2687 53.6215 87.4259 57.2746 87.2144C60.8599 87.0069 70.023 86.5279 78.2793 86.1012C82.4098 85.8877 86.3166 85.687 89.1908 85.5399C90.628 85.4663 91.807 85.4063 92.6267 85.3645C93.0365 85.3435 93.3566 85.327 93.5742 85.3159C93.6829 85.3103 93.7661 85.3063 93.8221 85.3034C93.8501 85.302 93.8713 85.3009 93.8855 85.3001C93.8926 85.2998 93.898 85.2996 93.9015 85.2994C93.9033 85.2993 93.9046 85.2992 93.9055 85.2991C93.9059 85.2991 93.9063 85.2991 93.9065 85.2991C93.9067 85.2991 93.907 85.299 94.0317 87.883L93.907 85.2991C95.2206 85.2322 96.3631 86.215 96.5297 87.5553C96.6962 88.8957 95.8306 90.1421 94.5427 90.4164L62.712 97.1947C62.657 97.2064 62.6016 97.2163 62.546 97.2242C62.5469 97.2241 62.5477 97.2241 62.5485 97.224C62.5505 97.2237 62.5522 97.2234 62.5534 97.2232ZM61.4864 92.1634C59.861 92.2511 58.5105 92.3256 57.5579 92.3808C56.0318 92.4691 55.1223 92.6685 54.6004 92.8376L55.9225 95.2273C56.135 94.977 56.3595 94.7463 56.5909 94.5345C57.7542 93.4695 59.0936 92.8773 60.0482 92.5524C60.5408 92.3847 60.971 92.2749 61.2852 92.2056C61.3583 92.1895 61.4255 92.1755 61.4864 92.1634Z" fill="#2E3A3F"/>
<path d="M69.6129 84.1131C71.0111 84.0486 72.197 85.1266 72.2617 86.5207C72.3243 87.8712 71.3118 89.0231 69.9773 89.1524L69.847 89.1616H69.8445C69.8429 89.1617 69.8404 89.162 69.8371 89.1621C69.8303 89.1624 69.8199 89.163 69.8064 89.1636C69.7795 89.1649 69.7394 89.1666 69.6869 89.1691C69.5817 89.174 69.4265 89.1811 69.2274 89.1904C68.8293 89.2091 68.255 89.2361 67.5509 89.2696C66.1426 89.3367 64.2156 89.4297 62.1401 89.5338C57.9753 89.7427 53.2562 89.9938 50.9103 90.168C50.4184 90.2045 50.0657 90.2658 49.8173 90.3289L52.812 95.0385C53.5613 96.2172 53.2104 97.7785 52.0283 98.5257C50.8461 99.2729 49.2802 98.923 48.5308 97.7443L44.932 92.0839C44.8514 91.9571 44.7823 91.8234 44.7255 91.6844L47.0724 90.7309C44.7559 91.6719 44.7251 91.6825 44.724 91.6809L44.7131 91.6536C44.7087 91.6425 44.704 91.6306 44.6991 91.6179C44.6894 91.5922 44.6788 91.5629 44.6675 91.5305C44.6449 91.4658 44.6192 91.387 44.5935 91.2956C44.5426 91.1145 44.4878 90.8734 44.4548 90.5874C44.3901 90.025 44.4012 89.1979 44.7863 88.3147C45.649 86.3364 47.735 85.336 50.5338 85.1282C52.9526 84.9486 57.7374 84.6944 61.8854 84.4863C63.9663 84.3819 65.8979 84.2886 67.3091 84.2214C68.0147 84.1878 68.5905 84.1608 68.9899 84.1422C69.1896 84.1328 69.3453 84.1255 69.4511 84.1205C69.5039 84.1181 69.5444 84.1163 69.5716 84.1151C69.5852 84.1145 69.5956 84.1139 69.6025 84.1136C69.6059 84.1134 69.6085 84.1134 69.6102 84.1133C69.6111 84.1133 69.6117 84.1131 69.6122 84.1131H69.6129Z" fill="#FFBC00"/>
<path d="M56.4267 101.011C57.6671 100.322 59.2161 100.798 59.8861 102.073L63.6645 109.263C64.3345 110.538 63.872 112.13 62.6315 112.819C61.391 113.507 59.8423 113.032 59.1722 111.757L55.3939 104.567C54.7239 103.292 55.1862 101.7 56.4267 101.011Z" fill="#2E3A3F"/>
<path d="M194.877 60.417C194.877 60.417 217.039 72.4469 239.302 72.4469L203.591 74.0406L194.877 60.4684V60.417Z" fill="#FFD200"/>
<path d="M344.036 63.5691L265.957 66.3403L342.461 42.0547C342.461 42.0547 352.468 53.744 358.361 62.4103L345.814 63.6195" fill="#FFE85F"/>
<path d="M341.675 39.7802C342.623 39.514 343.643 39.8253 344.284 40.5842L342.355 42.2311C344.284 40.5842 344.284 40.5843 344.285 40.5845C344.285 40.5846 344.285 40.5848 344.285 40.585C344.285 40.5854 344.286 40.5862 344.287 40.587C344.288 40.5886 344.29 40.5909 344.292 40.594C344.298 40.6001 344.305 40.609 344.315 40.6207C344.335 40.6441 344.364 40.6787 344.402 40.7237C344.478 40.814 344.589 40.9467 344.733 41.1185C345.02 41.462 345.436 41.9615 345.953 42.5876C346.986 43.8396 348.426 45.6002 350.05 47.6364C353.287 51.6952 357.302 56.901 360.298 61.367C360.797 62.1104 360.869 63.0628 360.489 63.8739C360.109 64.6851 359.332 65.2353 358.444 65.322L345.941 66.5433C345.518 66.5846 345.11 66.5185 344.742 66.3678C344.513 66.4464 344.269 66.4937 344.015 66.5028L266.21 69.3015C264.946 69.347 263.843 68.4482 263.626 67.1961C263.409 65.9441 264.144 64.7229 265.348 64.3355L341.583 39.8077L341.675 39.7802ZM284.377 63.5559L343.834 61.4173C344.203 61.404 344.557 61.4714 344.878 61.603C345.06 61.5408 345.252 61.498 345.451 61.4785L353.633 60.6792C351.205 57.3145 348.466 53.7854 346.101 50.8199C344.498 48.8105 343.077 47.0724 342.057 45.8373C341.858 45.5967 341.675 45.3756 341.508 45.175L284.377 63.5559Z" fill="#FFE85F"/>
<path d="M330.521 59.7757L337.941 49.9733C337.941 49.9733 338.196 49.3732 346.895 40.8711L365.469 42.3214L330.572 59.8257L330.521 59.7757Z" fill="#4A5A66"/>
<path d="M347.107 38.509L365.506 39.9794C366.635 40.0697 367.567 40.8987 367.789 42.0098C368.011 43.1209 367.469 44.2445 366.461 44.7618L331.894 62.5069C330.915 63.0097 329.723 62.8224 328.945 62.0436L328.894 61.9928C328.007 61.1052 327.903 59.7019 328.649 58.693L335.953 48.8166C335.969 48.7937 335.983 48.7723 335.997 48.7529C336.07 48.6504 336.156 48.5408 336.257 48.4188C336.46 48.1731 336.798 47.7874 337.382 47.1576C338.555 45.8935 340.798 43.5605 345.114 39.2436L345.214 39.1482C345.73 38.6862 346.414 38.4536 347.107 38.509ZM347.872 43.6564C344.112 47.4279 342.132 49.4903 341.097 50.6061C340.541 51.2058 340.277 51.5111 340.164 51.6488C340.15 51.6647 340.14 51.6772 340.133 51.6867C340.113 51.7152 340.094 51.7434 340.073 51.7712L339.074 53.1225L356.214 44.3229L347.872 43.6564ZM340.32 51.3609C340.321 51.3579 340.323 51.355 340.325 51.3519C340.328 51.3443 340.332 51.3363 340.335 51.3283C340.33 51.3392 340.325 51.35 340.32 51.3609ZM340.349 51.2989C340.353 51.2895 340.358 51.2798 340.362 51.2697C340.364 51.2647 340.367 51.2569 340.368 51.2543V51.254C340.362 51.269 340.356 51.284 340.349 51.2989Z" fill="#4A5A66"/>
<path d="M322.594 45.1199C323.915 44.7151 325.298 45.5139 325.683 46.9042C326.067 48.2946 325.308 49.7498 323.987 50.1546L308.24 54.9791C306.919 55.3839 305.536 54.5848 305.151 53.1945C304.766 51.8042 305.526 50.3489 306.847 49.9441L322.594 45.1199Z" fill="#FFF6B3"/>
<path d="M83.5186 62.7871H31.3933V72.2644H83.5186V62.7871Z" fill="#FFE000"/>
<path d="M231.01 66.9336H209.094V75.8186H231.01V66.9336Z" fill="#FFD200"/>
</svg>
