<svg width="318" height="232" viewBox="0 0 318 232" fill="none" xmlns="http://www.w3.org/2000/svg">
<g clip-path="url(#clip0_908_262)">
<path d="M262.734 211.325C279.123 194.227 279.123 177.039 279.123 177.039V159.941C279.123 112.565 265.159 79.704 262.985 74.8951C262.817 74.4498 262.566 74.0936 262.232 73.8264L247.348 58.2421C246.679 57.5297 246.261 56.5501 246.261 55.5705V42.3906C246.261 40.9657 245.424 39.5409 244.17 38.9175C212.06 22.7988 180.536 22.7988 180.536 22.7988H166.739C165.15 22.7988 163.812 23.8675 163.31 25.3814L148.175 72.6687C147.841 73.6483 147.924 74.6279 148.342 75.6075L179.867 141.329C180.285 142.219 181.037 142.932 181.957 143.199L224.185 157.893C226.777 158.783 227.53 162.167 225.607 164.216L198.012 192.98C197.343 193.692 196.423 194.138 195.42 194.138H147.673V211.236H262.566L262.734 211.325Z" fill="#4C4C4C"/>
<path d="M77.7598 195.207L61.454 182.562C59.7816 181.226 59.7816 179.178 61.454 177.842L94.9854 152.016C96.3233 151.037 98.3302 150.77 99.9189 151.393L163.135 175.794C166.814 177.218 170.745 174.191 168.905 171.341L137.297 122.54C136.461 121.293 136.795 119.69 138.133 118.71L153.435 106.866C154.606 105.976 156.278 105.709 157.867 106.065L213.474 120.402" stroke="#E2E2E2" stroke-width="26.0977" stroke-miterlimit="10"/>
<path d="M93.0757 161.722V149.878C93.0757 148.008 94.4136 146.316 96.4205 145.426L164.738 117.552C165.574 117.196 166.494 117.018 167.497 117.018H202.534V161.633H93.0757V161.722Z" fill="url(#paint0_linear_908_262)"/>
<path d="M10.9587 217.559H141.405L142.325 163.058L97.9229 162.257C94.9126 162.257 92.4877 160.208 92.4877 157.626V155.221C92.4877 151.926 88.6412 149.7 85.0455 150.947L26.0939 170.895C16.9793 174.012 10.9587 181.492 10.9587 189.863V217.559Z" fill="url(#paint1_linear_908_262)"/>
<path d="M236.974 18.5231C236.974 8.28197 230.034 0 221.421 0H183.625C175.012 0 168.072 8.28197 168.072 18.5231V95.6433C168.072 98.2259 169.828 100.363 172.002 100.363H212.223C213.895 100.363 215.4 99.0274 215.902 97.1572L226.773 57.6175L236.807 21.1057C237.058 20.3042 237.058 19.5027 236.974 18.7903C236.974 18.7012 236.974 18.6122 236.974 18.4341V18.5231Z" fill="url(#paint2_linear_908_262)"/>
<path d="M140.732 150.588H145.833C149.262 150.588 153.694 146.314 155.784 141.149C156.787 138.655 158.376 136.251 160.216 134.47L168.411 126.633C170.25 124.852 171.839 122.448 172.842 119.954L175.685 112.741C176.271 111.227 177.023 109.802 178.027 108.466L192.827 87.8949C194.751 85.2233 196.005 82.1064 196.172 79.4348L197.594 58.8635C197.677 57.5277 198.012 56.1028 198.597 54.5889L201.44 47.3756C202.444 44.8821 202.694 42.4776 202.276 40.6966L200.27 32.8599C199.768 31.0788 200.102 28.6744 201.106 26.1809C203.196 20.9267 202.026 16.7412 198.681 16.7412H193.58C190.152 16.7412 185.72 21.0158 183.629 26.1809C182.626 28.6744 181.037 31.0788 179.197 32.8599L171.003 40.6966C169.163 42.4776 167.574 44.8821 166.571 47.3756L163.728 54.5889C163.143 56.1028 162.39 57.5277 161.386 58.8635L146.586 79.4348C144.663 82.1064 143.408 85.2233 143.241 87.8949L141.82 108.466C141.736 109.802 141.401 111.227 140.816 112.741L137.973 119.954C136.97 122.448 136.719 124.852 137.137 126.633L139.144 134.47C139.645 136.251 139.311 138.655 138.308 141.149C136.217 146.403 137.388 150.588 140.732 150.588Z" fill="#ED0017"/>
<path d="M109.956 186.119L99.0859 151.478H149.258" stroke="#4C4C4C" stroke-width="17.3985" stroke-linecap="round" stroke-linejoin="round"/>
<path d="M295.505 105.974V74.004C295.505 73.0244 295.923 72.0449 296.592 71.3324L310.891 56.8167C311.56 56.1043 311.978 55.2138 311.978 54.1451V42.6572C311.978 40.609 310.305 38.917 308.299 38.917H246.253" stroke="#4C4C4C" stroke-width="11.6588" stroke-miterlimit="10"/>
<path d="M107.614 184.876L102.011 190.398C100.506 191.823 100.506 194.227 102.011 195.652L115.474 208.743C116.226 209.455 117.146 209.811 118.15 209.811H235.635C236.806 209.811 237.976 209.277 238.729 208.297L286.225 146.672C287.814 144.624 286.894 141.685 284.385 140.884L237.558 125.656L187.972 109.537C186.55 109.092 185.045 109.448 184.042 110.428L107.614 184.787" fill="url(#paint3_linear_908_262)"/>
<path d="M264.149 110.161L203.441 90.9258C198.34 89.3228 192.654 90.6587 188.64 94.3989L174.258 108.024C168.823 113.189 167.485 121.827 170.997 128.684L188.39 161.723L150.426 143.734C144.824 141.063 138.302 142.132 133.702 146.495L102.262 176.328C98.9168 179.445 97.0771 183.987 97.0771 188.795C97.0771 193.604 99.0004 198.057 102.262 201.263L132.615 228.602H141.228L152.35 213.374L124.922 188.617L145.409 169.204L200.765 195.474C207.12 198.502 214.479 196.721 218.994 191.022C223.259 185.679 223.928 178.198 220.667 172.053L204.026 140.529H263.647L264.149 110.161Z" fill="url(#paint4_linear_908_262)"/>
<path d="M263.566 205.979H221.004V231.538H263.566V205.979Z" fill="#4C4C4C"/>
<path d="M304.881 75.1592C304.547 74.3578 304.212 73.5563 303.627 72.9329L294.931 61.5341C293.258 59.3968 292.338 56.7252 292.338 53.9645V45.5935C292.338 42.6548 290.917 39.8941 288.575 38.4693C263.155 22.5287 238.487 22.3506 237.484 22.3506H226.948C223.603 22.3506 220.677 24.755 219.757 28.3172L208.217 73.6453C207.715 75.4264 207.883 77.3856 208.552 79.1667L232.634 142.127C233.387 144.176 234.892 145.69 236.731 146.491L262.653 157.801C265.329 158.958 266.165 162.432 264.409 164.747L249.107 184.784C248.271 185.853 247.017 186.565 245.595 186.565H207.381C201.695 186.565 197.012 191.285 197.012 197.162V212.123H302.54L303.961 210.342C317.257 192.888 317.424 175.522 317.424 174.81C317.424 164.035 316.588 153.348 314.999 142.662C308.142 97.2445 306.721 80.6806 304.798 75.3374L304.881 75.1592Z" fill="url(#paint5_linear_908_262)"/>
<path d="M228.693 34.1059L230.784 69.3711C231.035 73.5566 233.376 77.0297 236.804 78.2764L279.868 94.0389C282.795 95.1075 286.056 92.1688 285.805 88.6066L283.715 53.3415C283.464 49.156 281.123 45.6829 277.694 44.4361L234.63 28.6737C231.704 27.605 228.442 30.5438 228.693 34.1059Z" fill="#EDEDED"/>
<path d="M140.903 210.61H177.361C186.057 210.61 193.081 218.091 193.081 227.352H125.266C125.266 218.091 132.29 210.61 140.986 210.61H140.903Z" fill="#F7F7F7"/>
<path d="M163.894 195.918C159.63 195.918 155.281 196.363 151.1 197.254L71.9964 213.729H41.8098V231.539H225.773V213.729L184.548 199.391C177.859 197.076 170.918 195.918 163.894 195.918Z" fill="#4C4C4C"/>
<path d="M316.416 202.506L300.946 182.291C298.438 179.085 294.759 177.927 291.414 179.352L243.333 200.28C237.73 202.684 234.135 208.384 234.135 214.707V231.538H313.071C315.663 231.538 317.754 228.866 317.754 225.482V206.781C317.754 205.178 317.252 203.664 316.416 202.506Z" fill="#4C4C4C"/>
<path d="M309.147 231.541H258.975V225.574C258.975 221.834 262.237 218.539 267.003 217.381L277.372 214.888C293.008 211.058 309.063 219.608 309.063 231.541H309.147Z" fill="url(#paint6_linear_908_262)"/>
<path d="M184.052 213.906H149.768C140.821 213.906 133.546 221.743 133.546 231.539H200.358C200.358 221.832 193.083 213.906 184.136 213.906H184.052Z" fill="url(#paint7_linear_908_262)"/>
<path d="M235.476 37.6688L239.072 56.4591C239.908 61.0899 242.584 65.3644 246.346 68.3032C250.109 71.331 254.792 72.8449 259.308 72.4887L265.161 72.0434C269.676 71.6872 273.606 69.5499 276.199 66.0768C278.791 62.6038 279.711 58.062 278.874 53.4313C277.369 45.4165 271.516 38.3812 263.739 35.3534L246.848 28.6744C240.41 26.0919 234.222 30.9898 235.56 37.7579L235.476 37.6688Z" fill="url(#paint8_linear_908_262)"/>
<path d="M83.536 215.597V213.103C83.536 207.671 80.693 202.862 76.3448 199.745C76.3448 199.745 76.2611 199.745 76.1775 199.656C73.1672 197.608 69.488 196.361 65.3906 196.361H9.86733C9.86733 196.361 9.282 196.361 9.03114 196.361C3.93036 196.718 0.000244141 200.636 0.000244141 205.445V226.461C0.000244141 229.222 2.42521 231.448 5.43551 231.448H83.536V215.508V215.597Z" fill="url(#paint9_linear_908_262)"/>
<path d="M198.763 81.6634L171.503 70.2646C168.409 69.0178 168.409 65.4557 171.503 64.209L198.763 52.8101C212.309 47.1998 228.531 55.0365 228.531 67.2368C228.531 79.4371 212.309 87.2738 198.763 81.6634Z" stroke="#4C4C4C" stroke-width="11.2104" stroke-linecap="round" stroke-linejoin="round"/>
<path d="M198.759 52.8101C212.306 47.1998 228.528 55.0365 228.528 67.2368" stroke="#4C4C4C" stroke-width="11.2104" stroke-linecap="round" stroke-linejoin="round"/>
<path d="M133.297 81.6634L160.557 70.2646C163.651 69.0178 163.651 65.4557 160.557 64.209L133.297 52.8101C119.75 47.1998 103.528 55.0365 103.528 67.2368C103.528 79.4371 119.75 87.2738 133.297 81.6634Z" stroke="#4C4C4C" stroke-width="11.2104" stroke-linecap="round" stroke-linejoin="round"/>
<path d="M133.297 52.8101C119.75 47.1998 103.528 55.0365 103.528 67.2368" stroke="#4C4C4C" stroke-width="11.2104" stroke-linecap="round" stroke-linejoin="round"/>
<path d="M154.531 151.746L142.072 117.104H192.16" stroke="#4C4C4C" stroke-width="17.6675" stroke-linecap="round" stroke-linejoin="round"/>
<path d="M164.234 69.7295C182.379 69.7295 197.096 84.6905 197.096 103.214" stroke="#4C4C4C" stroke-width="11.4794" stroke-linecap="round" stroke-linejoin="round"/>
<path d="M131.374 103.214C131.374 84.6905 146.091 69.7295 164.236 69.7295" stroke="#4C4C4C" stroke-width="11.4794" stroke-linecap="round" stroke-linejoin="round"/>
</g>
<defs>
<linearGradient id="paint0_linear_908_262" x1="117.409" y1="73.1143" x2="170.573" y2="175.559" gradientUnits="userSpaceOnUse">
<stop offset="0.44" stop-color="#F8F8F8"/>
<stop offset="0.53" stop-color="#F1F1F1"/>
<stop offset="0.78" stop-color="#E4E4E4"/>
<stop offset="1" stop-color="#E0E0E0"/>
</linearGradient>
<linearGradient id="paint1_linear_908_262" x1="76.6" y1="115.414" x2="76.6" y2="226.197" gradientUnits="userSpaceOnUse">
<stop offset="0.57" stop-color="#DD0716"/>
<stop offset="0.58" stop-color="#DA0616"/>
<stop offset="0.67" stop-color="#C60416"/>
<stop offset="0.73" stop-color="#BF0416"/>
</linearGradient>
<linearGradient id="paint2_linear_908_262" x1="202.523" y1="-29.7438" x2="202.523" y2="43.7252" gradientUnits="userSpaceOnUse">
<stop offset="0.58" stop-color="#727272"/>
<stop offset="0.65" stop-color="#616161"/>
<stop offset="0.72" stop-color="#565656"/>
<stop offset="0.81" stop-color="#424242"/>
<stop offset="0.91" stop-color="#343434"/>
<stop offset="1" stop-color="#303030"/>
</linearGradient>
<linearGradient id="paint3_linear_908_262" x1="193.909" y1="66.9697" x2="193.909" y2="251.221" gradientUnits="userSpaceOnUse">
<stop offset="0.56" stop-color="#DD0716"/>
<stop offset="0.57" stop-color="#DA0616"/>
<stop offset="0.67" stop-color="#C60416"/>
<stop offset="0.73" stop-color="#BF0416"/>
</linearGradient>
<linearGradient id="paint4_linear_908_262" x1="97.0771" y1="159.408" x2="264.149" y2="159.408" gradientUnits="userSpaceOnUse">
<stop offset="0.44" stop-color="#F8F8F8"/>
<stop offset="0.53" stop-color="#F1F1F1"/>
<stop offset="0.78" stop-color="#E4E4E4"/>
<stop offset="1" stop-color="#E0E0E0"/>
</linearGradient>
<linearGradient id="paint5_linear_908_262" x1="257.218" y1="80.2353" x2="257.218" y2="203.04" gradientUnits="userSpaceOnUse">
<stop offset="0.44" stop-color="#F8F8F8"/>
<stop offset="0.53" stop-color="#F1F1F1"/>
<stop offset="0.78" stop-color="#E4E4E4"/>
<stop offset="1" stop-color="#E0E0E0"/>
</linearGradient>
<linearGradient id="paint6_linear_908_262" x1="284.061" y1="199.125" x2="284.061" y2="236.083" gradientUnits="userSpaceOnUse">
<stop offset="0.51" stop-color="#F6F6F6"/>
<stop offset="0.56" stop-color="#EAEAEA"/>
<stop offset="0.63" stop-color="#E3E3E3"/>
<stop offset="0.82" stop-color="#E2E2E2"/>
</linearGradient>
<linearGradient id="paint7_linear_908_262" x1="166.91" y1="174.99" x2="166.91" y2="247.39" gradientUnits="userSpaceOnUse">
<stop offset="0.56" stop-color="#F6F6F6"/>
<stop offset="0.59" stop-color="#EAEAEA"/>
<stop offset="0.63" stop-color="#E3E3E3"/>
<stop offset="0.73" stop-color="#E2E2E2"/>
</linearGradient>
<linearGradient id="paint8_linear_908_262" x1="266.081" y1="28.8525" x2="244.49" y2="68.4463" gradientUnits="userSpaceOnUse">
<stop offset="0.15" stop-color="#F9F9F9"/>
<stop offset="0.33" stop-color="#EDEDED"/>
<stop offset="0.59" stop-color="#E4E4E4"/>
<stop offset="1" stop-color="#E2E2E2"/>
</linearGradient>
<linearGradient id="paint9_linear_908_262" x1="41.8099" y1="159.226" x2="41.8099" y2="236.613" gradientUnits="userSpaceOnUse">
<stop offset="0.53" stop-color="#F9F9F9"/>
<stop offset="0.58" stop-color="#E9E9E9"/>
<stop offset="0.63" stop-color="#E2E2E2"/>
</linearGradient>
<clipPath id="clip0_908_262">
<rect width="317.754" height="231.539" fill="white"/>
</clipPath>
</defs>
</svg>
