<svg width="351" height="153" viewBox="0 0 351 153" fill="none" xmlns="http://www.w3.org/2000/svg">
<g clip-path="url(#clip0_908_179)">
<path d="M76.2193 52.7442H90.4721C91.5391 52.7442 92.53 53.5064 93.0635 54.6496C93.597 55.8691 93.5208 57.3173 92.9111 58.3843L88.1093 67.3781C87.652 68.2165 86.9661 68.8262 86.2039 68.9786C85.3655 69.1311 84.6033 68.9024 83.9936 68.2927L74.4663 59.2989C73.4755 58.3843 73.0944 56.7075 73.4755 55.1832C73.8566 53.6588 74.9998 52.668 76.2193 52.668V52.7442Z" fill="#F9F9F9"/>
<path d="M254.491 37.6502C254.491 37.6502 228.12 21.7969 188.639 21.7969C149.158 21.7969 135.972 29.7236 135.972 29.7236V65.3936H257.616L254.491 37.6502Z" fill="#99A5FF"/>
<path d="M134.45 29.5723C117.606 37.1941 89.1765 72.5593 89.1765 72.5593H193.748" fill="#99A5FF"/>
<path d="M133.06 26.0242C134.937 25.2873 137.081 26.1437 137.922 28.0011C138.79 29.9187 137.939 32.177 136.021 33.0446L135.673 33.2054C132.044 34.9231 127.581 38.1878 122.774 42.3776C117.869 46.6519 112.832 51.6889 108.273 56.5353C104 61.0781 100.181 65.4196 97.3291 68.7488H193.748L193.944 68.7532C195.957 68.8552 197.559 70.5207 197.559 72.5597C197.559 74.5985 195.957 76.2634 193.944 76.3654L193.748 76.3706H89.1766C87.7101 76.3706 86.3739 75.5286 85.7401 74.2061C85.1064 72.8835 85.288 71.3149 86.2068 70.1719L89.1766 72.5597C86.2065 70.172 86.2071 70.171 86.2076 70.1704L86.2083 70.1689C86.2095 70.1675 86.2115 70.1655 86.2135 70.163C86.2175 70.158 86.2233 70.1505 86.2306 70.1414C86.2455 70.1229 86.2671 70.0959 86.2954 70.061C86.3521 69.9909 86.4361 69.8886 86.5447 69.7551C86.7622 69.4879 87.0806 69.0971 87.4915 68.5992C88.3132 67.6034 89.5033 66.1768 90.9824 64.4422C93.9384 60.9752 98.0606 56.2675 102.721 51.3131C107.375 46.3656 112.602 41.1318 117.766 36.6315C122.871 32.1818 128.147 28.2416 132.879 26.1001L133.06 26.0242Z" fill="#F2F2F2"/>
<path d="M261.147 29.8565C263.136 30.5445 264.19 32.7145 263.502 34.7035C262.814 36.6925 260.644 37.7472 258.655 37.0593L261.147 29.8565ZM136.045 33.0325C136.014 33.0452 135.992 33.0539 135.981 33.0586C134.062 33.9039 131.818 33.0385 130.964 31.1204C130.108 29.1975 130.973 26.9445 132.896 26.0888L134.413 29.497C132.896 26.089 132.899 26.0882 132.901 26.0873C132.901 26.0869 132.904 26.0857 132.905 26.0851C132.908 26.0837 132.911 26.0821 132.915 26.0806C132.922 26.0775 132.93 26.074 132.939 26.0702C132.956 26.0625 132.978 26.0539 133.003 26.0434C133.052 26.0224 133.116 25.9956 133.195 25.9637C133.354 25.8997 133.574 25.8145 133.857 25.7114C134.424 25.5052 135.247 25.2264 136.359 24.9008C138.584 24.2497 141.963 23.4092 146.75 22.5771C156.321 20.9134 171.54 19.2812 194.43 19.2812C225.123 19.2813 248.719 25.5578 261.147 29.8565L258.655 37.0593C246.845 32.974 224.1 26.9031 194.43 26.9031C171.894 26.9031 157.12 28.5102 148.056 30.0858C143.525 30.8733 140.426 31.6524 138.501 32.216C137.539 32.4976 136.871 32.7251 136.464 32.8732C136.26 32.9472 136.122 33.0016 136.045 33.0325ZM135.975 33.0601C135.977 33.0594 135.979 33.0595 135.981 33.0586C135.98 33.0591 135.979 33.0588 135.978 33.0593C135.977 33.0597 135.976 33.0598 135.975 33.0601Z" fill="#F2F2F2"/>
<path d="M22.9394 152.437C31.5266 152.437 38.4878 136.194 38.4878 116.157C38.4878 96.12 31.5266 79.877 22.9394 79.877C14.3522 79.877 7.39087 96.12 7.39087 116.157C7.39087 136.194 14.3522 152.437 22.9394 152.437Z" fill="#4A5A66"/>
<path d="M54.1131 79.877H22.9399V152.437H54.1131V79.877Z" fill="#4A5A66"/>
<path d="M54.1112 152.437C62.6984 152.437 69.6597 136.194 69.6597 116.157C69.6597 96.12 62.6984 79.877 54.1112 79.877C45.524 79.877 38.5627 96.12 38.5627 116.157C38.5627 136.194 45.524 152.437 54.1112 152.437Z" fill="#4A5A66"/>
<path d="M179.187 152.437C187.774 152.437 194.735 136.194 194.735 116.157C194.735 96.12 187.774 79.877 179.187 79.877C170.599 79.877 163.638 96.12 163.638 116.157C163.638 136.194 170.599 152.437 179.187 152.437Z" fill="#4A5A66"/>
<path d="M303.882 152.437C312.469 152.437 319.43 136.194 319.43 116.157C319.43 96.12 312.469 79.877 303.882 79.877C295.295 79.877 288.333 96.12 288.333 116.157C288.333 136.194 295.295 152.437 303.882 152.437Z" fill="#4A5A66"/>
<path d="M314.551 72.5606C297.173 48.4757 262.037 29.04 235.97 29.04C220.269 29.04 204.568 72.5606 204.568 72.5606" fill="#99A5FF"/>
<path d="M235.97 25.3809C249.819 25.3809 265.735 30.5092 280.291 38.5672C294.645 46.5142 308.027 57.5029 317.09 69.8307L317.518 70.4188L317.624 70.5743C318.676 72.1992 318.279 74.3809 316.691 75.5263C315.104 76.6716 312.908 76.3607 311.698 74.8504L311.584 74.7001L311.192 74.1612C302.877 62.8528 290.377 52.5144 276.747 44.9683C262.873 37.2873 248.188 32.6975 235.97 32.6975C233.685 32.6975 230.691 34.3712 227.157 38.2896C223.759 42.0566 220.485 47.2072 217.599 52.541C214.73 57.8423 212.328 63.1661 210.639 67.1787C209.796 69.181 209.135 70.8473 208.686 72.0086C208.461 72.5891 208.291 73.0432 208.177 73.3491C208.12 73.5018 208.077 73.6175 208.049 73.6937C208.035 73.7319 208.025 73.7606 208.018 73.7786C208.015 73.7875 208.012 73.7941 208.011 73.798L208.009 73.8002L208.01 73.8009C207.324 75.7015 205.227 76.6868 203.327 76.0011C201.426 75.3154 200.441 73.2185 201.127 71.3179L204.247 72.4433C201.127 71.3178 201.127 71.3172 201.127 71.3164C201.127 71.3159 201.128 71.315 201.128 71.3142C201.129 71.3122 201.13 71.3093 201.131 71.306C201.133 71.2993 201.137 71.2896 201.141 71.2777C201.15 71.2539 201.162 71.2198 201.179 71.1757C201.211 71.0874 201.258 70.9588 201.32 70.7931C201.444 70.4616 201.626 69.9803 201.861 69.3708C202.332 68.1521 203.02 66.4183 203.895 64.3407C205.64 60.1933 208.145 54.637 211.164 49.0583C214.165 43.512 217.761 37.782 221.723 33.389C225.549 29.1474 230.405 25.3809 235.97 25.3809Z" fill="#F2F2F2"/>
<path d="M33.6119 64.3266H87.1932C94.2053 64.1741 99.9217 69.2807 99.9217 75.6068C99.9217 80.0275 97.1016 83.9146 92.9858 85.8201L45.1971 107.542C6.47829 121.947 -8.07936 67.2991 33.6882 64.3266H33.6119Z" fill="#F2F2F2"/>
<path d="M342.525 82.8506H311.199V148.093H342.525V82.8506Z" fill="#4A5A66"/>
<path d="M335.056 79.877H303.882V152.437H335.056V79.877Z" fill="#4A5A66"/>
<path d="M210.36 79.877H179.187V152.437H210.36V79.877Z" fill="#4A5A66"/>
<path d="M220.502 67.7588V91.6149H211.812V67.7588H220.502Z" fill="#CECECE"/>
<path d="M205.789 74.1624L265.544 72.0283C265.544 72.0283 262.876 113.72 263.028 112.576C263.181 111.433 223.547 114.787 224.386 113.796C225.224 112.805 207.389 82.7751 207.389 82.7751L205.789 74.2386V74.1624Z" fill="#F2F2F2"/>
<path d="M210.746 65.623H321.11C324.463 65.623 327.207 68.3669 327.207 71.7205V143.365H210.746V65.623Z" fill="#F2F2F2"/>
<path d="M185.057 119.358H140.393V134.983H185.057V119.358Z" fill="#F2F2F2"/>
<path d="M185.057 114.977L185.282 114.983C187.598 115.1 189.439 117.014 189.439 119.359V134.984C189.439 137.404 187.477 139.366 185.057 139.366H140.393C137.973 139.366 136.011 137.404 136.01 134.984V119.359L136.016 119.134C136.134 116.818 138.048 114.977 140.393 114.977H185.057ZM144.776 130.601H180.674V123.742H144.776V130.601Z" fill="#F2F2F2"/>
<path d="M12.5738 91.6152H189.781V133.535H11.2019V93.0634C11.2019 92.3012 11.8116 91.6152 12.65 91.6152H12.5738Z" fill="#F2F2F2"/>
<path d="M189.781 80.791L190.061 80.7947C195.909 80.9431 200.604 85.7303 200.604 91.6141V133.534C200.604 139.511 195.758 144.357 189.781 144.357H11.202C5.22466 144.357 0.378906 139.511 0.378906 133.534V93.0626C0.378906 86.9836 5.01953 81.3243 11.694 80.8275C11.9842 80.8041 12.2776 80.791 12.5738 80.791H189.781ZM22.0251 122.711H178.958V102.437H22.0251V122.711Z" fill="#F2F2F2"/>
<path d="M17.8335 119.054H32.7722L32.7722 90.0146H17.8335L17.8335 119.054Z" fill="#F2F2F2"/>
<path d="M14.941 89.5583C7.16675 96.799 0.459555 98.8569 0.00224653 94.2076C-0.455062 89.5583 5.48995 79.8786 13.3404 72.6379C21.1147 65.3971 27.8218 63.3393 28.2792 67.9886C28.7365 72.6379 22.7915 82.3176 14.941 89.5583Z" fill="#99A5FF"/>
<path d="M97.7899 65.3965C98.4759 65.3965 99.238 65.3965 99.8478 65.3965H186.889C143.368 74.4664 88.9486 94.4356 88.9486 94.4356H15.4744C41.0074 75.6097 76.2202 66.0062 97.7899 65.3965Z" fill="#EAEAEA"/>
<path d="M194.129 65.3972H154.952H154.8H154.648C140.623 66.0832 130.258 71.266 126.218 79.65C122.865 86.6621 124.465 94.665 130.486 100.686C136.127 106.326 144.663 109.146 154.495 108.918C158.077 108.842 161.812 108.308 165.699 107.393L222.482 90.6254C231.399 88.1102 234.372 81.7841 233.457 76.6013C232.466 71.1136 226.674 65.321 216.384 65.3972H210.287" fill="#F2F2F2"/>
<path d="M0.230713 116.158H19.6663C25.4589 116.158 30.1082 120.808 30.1082 126.6V145.197H10.6726C4.88002 145.197 0.230713 140.548 0.230713 134.755V116.158Z" fill="#4A5967"/>
<path d="M230.254 58.452C232.192 57.0375 234.919 57.3763 236.447 59.2611C238.024 61.2067 237.725 64.0627 235.779 65.6399L225.719 73.7954C223.774 75.3725 220.918 75.0734 219.341 73.1277C217.764 71.1821 218.062 68.3268 220.007 66.7497L230.068 58.5942L230.254 58.452Z" fill="#E0E0E2"/>
<path d="M107.087 123.396H9.83228V145.195H107.087V123.396Z" fill="#4A5967"/>
<path d="M256.855 55.3359C256.474 54.5737 255.788 54.0401 254.874 53.8877L236.734 50.9152C235.819 50.7628 234.905 51.1439 234.295 51.8298L226.444 61.2046C225.835 61.9668 225.682 63.0339 226.063 63.9485C226.521 64.8631 227.435 65.3966 228.426 65.3966H250.453C251.368 65.3966 252.206 64.9393 252.663 64.1771L256.627 57.851C257.084 57.0889 257.16 56.2505 256.779 55.4121L256.855 55.3359Z" fill="#EAEAEA"/>
<path d="M349.384 96.95C347.707 83.0783 340.771 70.6548 332.616 66.6914C327.052 64.0238 321.336 65.3195 316.305 70.3499C303.729 83.7643 301.824 110.364 305.406 129.343C306.244 134.297 309.369 137.727 313.104 137.879C316.915 138.108 319.887 134.83 320.955 130.105L322.936 122.026C324.079 117.376 325.375 112.498 326.823 108.459C326.976 108.078 327.128 107.621 327.281 107.163C329.034 111.431 330.253 116.614 331.549 122.026C332.159 124.541 332.768 127.132 333.378 129.419C334.14 133.23 336.046 136.05 338.866 137.422C339.628 137.727 340.39 137.803 341.152 137.803C343.058 137.803 344.735 136.964 346.183 135.288C353.728 126.523 349.536 96.95 349.46 96.7976L349.384 96.95Z" fill="#F2F2F2"/>
<path d="M144.509 83.0786C139.708 86.6608 133.839 88.109 131.476 86.3559C129.113 84.6029 131.019 80.1823 135.82 76.6C140.622 73.0178 146.491 71.5696 148.854 73.3226C151.217 75.0757 149.311 79.4963 144.509 83.0786Z" fill="#99A5FF"/>
<path d="M134.298 94.3569C130.563 94.3569 127.21 93.4423 124.618 91.4606C120.731 88.5644 119.74 84.3724 121.722 79.8755C123.018 76.9792 125.533 74.0829 128.963 71.4915C132.392 68.9763 136.28 67.0709 140.167 66.08C146.264 64.5557 151.904 65.3941 155.791 68.2141C159.679 71.1104 160.669 75.3024 158.688 79.7993C157.392 82.6956 154.877 85.5918 151.447 88.1833C146.036 92.2228 139.786 94.3569 134.298 94.3569Z" fill="#99A5FF"/>
<path d="M327.205 65.3184H319.431V72.5591H327.205V65.3184Z" fill="#F2F2F2"/>
<path d="M324.157 141.463L330.331 125.229L337.648 141.463H324.157Z" fill="#CECECE"/>
<path d="M337.649 145.198H324.159C322.558 145.198 321.034 144.664 320.043 143.75C319.052 142.835 318.747 141.616 319.128 140.549L325.302 124.314C325.912 122.714 327.893 121.646 330.18 121.57C332.466 121.494 334.524 122.561 335.21 124.162L342.527 140.396C343.061 141.539 342.756 142.759 341.765 143.75C340.774 144.741 339.25 145.274 337.573 145.274L337.649 145.198Z" fill="#CECECE"/>
<path d="M198.856 137.955H159.451C157.431 137.955 155.793 139.576 155.793 141.575C155.793 143.575 157.431 145.196 159.451 145.196H198.856C200.877 145.196 202.515 143.575 202.515 141.575C202.515 139.576 200.877 137.955 198.856 137.955Z" fill="#CECECE"/>
<path d="M323.547 137.955H221.796C219.775 137.955 218.137 139.576 218.137 141.575C218.137 143.575 219.775 145.196 221.796 145.196H323.547C325.567 145.196 327.205 143.575 327.205 141.575C327.205 139.576 325.567 137.955 323.547 137.955Z" fill="#CECECE"/>
<path d="M113.641 116.158H154.799C160.744 116.158 165.546 120.96 165.546 126.905V136.661C165.546 141.386 161.735 145.197 157.009 145.197H103.199V126.6C103.199 120.808 107.849 116.158 113.641 116.158Z" fill="#4A5967"/>
<path d="M210.359 152.437C218.946 152.437 225.907 136.194 225.907 116.157C225.907 96.12 218.946 79.877 210.359 79.877C201.771 79.877 194.81 96.12 194.81 116.157C194.81 136.194 201.771 152.437 210.359 152.437Z" fill="#4A5A66"/>
<path d="M335.054 152.437C343.641 152.437 350.603 136.194 350.603 116.157C350.603 96.12 343.641 79.877 335.054 79.877C326.467 79.877 319.506 96.12 319.506 116.157C319.506 136.194 326.467 152.437 335.054 152.437Z" fill="#4A5A66"/>
<path d="M291.307 75.9893L291.444 75.993C292.854 76.0643 293.975 77.2296 293.975 78.6569C293.975 80.0842 292.854 81.2494 291.444 81.3208L291.307 81.3245H283.533C282.06 81.3245 280.865 80.1302 280.865 78.6569C280.865 77.1836 282.06 75.9893 283.533 75.9893H291.307Z" fill="#E0E0E0"/>
<path d="M186.127 94.358H170.503C168.368 94.358 166.615 92.7574 166.615 90.6995C166.615 88.6416 168.368 87.041 170.503 87.041H186.127C188.261 87.041 190.014 88.6416 190.014 90.6995C190.014 92.7574 188.261 94.358 186.127 94.358Z" fill="#E0E0E0"/>
<path d="M334.98 72.5596H319.431V79.8003H334.98V72.5596Z" fill="#F2F2F2"/>
<path d="M330.403 68.9766H313.864V77.513H330.403V68.9766Z" fill="#F2F2F2"/>
<path d="M299.156 60.9004C299.156 60.9004 302.129 63.568 299.156 65.7021H306.93L299.156 60.9004Z" fill="#F2F2F2"/>
<path d="M306.927 58.0791C306.927 58.0791 314.777 65.3198 327.201 65.3198V71.9508H310.966L306.927 58.0791Z" fill="#F2F2F2"/>
<path d="M222.484 28.7367C222.484 28.7367 224.389 29.4989 223.703 31.3282L228.581 30.0324L227.286 26.4502L222.484 28.7367Z" fill="#F2F2F2"/>
</g>
<defs>
<clipPath id="clip0_908_179">
<rect width="350.603" height="152.436" fill="white"/>
</clipPath>
</defs>
</svg>
